<svg width="596" height="596" xmlns="http://www.w3.org/2000/svg"><title>4-Eyed</title><g fill="#dfdfdf" fill-rule="evenodd"><path d="M108 530v67h343v-67h-343zm0 0" fill="#feffff"/><path d="M79.502 596.5v-41c0-28 37.289-41.04 37.289-41.04l79.709 69.04h22.5v13h-139.498zm356.498-132.5h27c19 0 65.5 0 85 83v50h-112v-133m-112 116.5h33v16h-33v-16" fill="#ff2600"/><path d="M108 218v282c0 19.5 51.5 84 87 84h171c49 0 85-66.5 85-84v-282c0-4-48-80-52-80h-239.5c-4 0-51.5 80-51.5 80" fill="#ffd400"/><path d="M171 296.421c-30-.5-64-.5-64-.5v-122.5s4.5-33.5 53-34c-21.5.5-27.5-28.5-27.5-43.5 0-14.5 0-41.5 29-55.5 28.5-14 69.5 4 69.5 4s-20.5 18-34 51.5c1.5 9.5 9 4 9 4s13-41.5 100-63c95.5-9.5 197-16.5 246.5 0-19.5 66.5-101 103-147 102 46 1 46 34.5 46 34.5v122.5h-64v-157c0 9-216.5 7.5-216.5 7.5v150zm0 0" fill="#ff2600"/><path d="M486 369v-55c0-37-36-37-40-37h-15c-4 0-8 4-8 8v113c0 4 4 8 8 8h15c4 0 40 0 40-37" fill="#ffd400"/><path d="M69 314v55c0 37 36 37 40 37h15c4 0 8-4 8-8v-113c0-4-4-8-8-8h-15c-4 0-40 0-40 37" fill="#ffd400"/><path d="M219 463v17h116v-17h-116" fill="#770b00"/><path d="M348 369c-25.5 0-46-20.5-46-46s20.5-46 46-46 46 20.5 46 46-20.5 46-46 46m-142 0c-25.5 0-46-20.5-46-46s20.5-46 46-46 46 20.5 46 46-20.5 46-46 46" fill="#feffff"/><path d="M205.5 323c-13 0-23.5-10.5-23.5-23.5s10.5-23.5 23.5-23.5 23.5 10.5 23.5 23.5-10.5 23.5-23.5 23.5m143 0c-13 0-23.5-10.5-23.5-23.5s10.5-23.5 23.5-23.5 23.5 10.5 23.5 23.5-10.5 23.5-23.5 23.5" fill="#aad6d7"/><path d="M206.5 400c-42 0-76.5-34.5-76.5-76.5s34.5-76.5 76.5-76.5c32.003 0 59.651 20.031 71 48.147 11.349-28.117 38.997-48.147 71-48.147 42 0 76.5 34.5 76.5 76.5s-34.5 76.5-76.5 76.5c-32.003 0-59.651-20.031-71-48.147-11.349 28.117-38.997 48.147-71 48.147m-.5-31c25.5 0 46-20.5 46-46s-20.5-46-46-46-46 20.5-46 46 20.5 46 46 46m142 0c25.5 0 46-20.5 46-46s-20.5-46-46-46-46 20.5-46 46 20.5 46 46 46" fill="#770b00"/></g></svg>