<svg width="484" height="570" viewBox="0 0 484 570" xmlns="http://www.w3.org/2000/svg"><g fill="none"><path d="M39 503v67h343v-67H39z" fill="#FEFFFF"/><path d="M10.502 569.5v-41c0-28 37.29-41.04 37.29-41.04L127.5 556.5H150v13H10.502zM367 437h27c19 0 65.5 0 85 83v50H367V437zM255 553.5h33v16h-33v-16z" fill="#FF2600"/><path d="M39 191v282c0 19.5 51.5 84 87 84h171c49 0 85-66.5 85-84V191c0-4-48-80-52-80H90.5c-4 0-51.5 80-51.5 80" fill="#FFD400"/><path d="M38 268.92v-122.5c0-34.5 22.736-33.687 53-34-21.5.5-27.5-28.5-27.5-43.5 0-14.5 0-41.5 29-55.5 28.5-14 69.5 4 69.5 4s-20.5 18-34 51.5c1.5 9.5 9 4 9 4s13-41.5 100-63c95.5-9.5 197-16.5 246.5 0-19.5 66.5-101 103-147 102 46 1 46 34.5 46 34.5v122.5h-64v-157c0 9-216.5 7.5-216.5 7.5v150c-30-.5-64-.5-64-.5z" fill="#FF2600"/><path d="M417 342v-55c0-37-36-37-40-37h-15c-4 0-8 4-8 8v113c0 4 4 8 8 8h15c4 0 40 0 40-37M0 287v55c0 37 36 37 40 37h15c4 0 8-4 8-8V258c0-4-4-8-8-8H40c-4 0-40 0-40 37" fill="#FFD400"/><path d="M150 436v17h116v-17H150" fill="#770B00"/><path d="M279 342c-25.5 0-46-20.5-46-46s20.5-46 46-46 46 20.5 46 46-20.5 46-46 46m-142 0c-25.5 0-46-20.5-46-46s20.5-46 46-46 46 20.5 46 46-20.5 46-46 46" fill="#FEFFFF"/><path d="M136.5 296c-13 0-23.5-10.5-23.5-23.5s10.5-23.5 23.5-23.5 23.5 10.5 23.5 23.5-10.5 23.5-23.5 23.5m143 0c-13 0-23.5-10.5-23.5-23.5s10.5-23.5 23.5-23.5 23.5 10.5 23.5 23.5-10.5 23.5-23.5 23.5" fill="#AAD6D7"/><path d="M137.5 373c-42 0-76.5-34.5-76.5-76.5S95.5 220 137.5 220c32.003 0 59.65 20.03 71 48.147C219.85 240.03 247.497 220 279.5 220c42 0 76.5 34.5 76.5 76.5S321.5 373 279.5 373c-32.003 0-59.65-20.03-71-48.147C197.15 352.97 169.503 373 137.5 373m-.5-31c25.5 0 46-20.5 46-46s-20.5-46-46-46-46 20.5-46 46 20.5 46 46 46m142 0c25.5 0 46-20.5 46-46s-20.5-46-46-46-46 20.5-46 46 20.5 46 46 46" fill="#770B00"/></g></svg>