<?xml version="1.0" standalone="no"?>
<!DOCTYPE svg PUBLIC "-//W3C//DTD SVG 20010904//EN"
 "http://www.w3.org/TR/2001/REC-SVG-20010904/DTD/svg10.dtd">
<svg version="1.0" xmlns="http://www.w3.org/2000/svg"
 width="898.000000pt" height="926.000000pt" viewBox="0 0 898.000000 926.000000"
 preserveAspectRatio="xMidYMid meet">
<metadata>
Created by potrace 1.12, written by Peter Selinger 2001-2015
</metadata>
<g transform="translate(0.000000,926.000000) scale(0.100000,-0.100000)"
fill="#000000" stroke="none">
<path d="M5150 8994 c-57 -18 -177 -51 -254 -70 -78 -19 -176 -52 -190 -63 -6
-5 -69 -33 -141 -61 -283 -114 -492 -242 -695 -428 -108 -98 -249 -306 -328
-482 -49 -108 -59 -140 -97 -285 -49 -192 -51 -207 -82 -643 -3 -45 -9 -85
-13 -87 -5 -3 -49 8 -100 25 -50 16 -142 44 -203 60 -137 38 -186 53 -257 78
-30 11 -75 25 -100 32 -25 7 -65 20 -90 28 -25 8 -61 18 -80 23 -19 4 -69 17
-110 29 -67 18 -166 31 -345 46 -99 8 -657 4 -674 -5 -9 -5 -45 -11 -81 -15
-116 -12 -183 -23 -265 -46 -44 -12 -90 -24 -103 -27 -12 -3 -25 -9 -28 -14
-3 -5 -13 -9 -23 -9 -9 0 -36 -9 -59 -20 -22 -11 -47 -20 -54 -20 -17 0 -86
-24 -94 -33 -4 -4 -17 -7 -29 -7 -12 0 -48 -13 -80 -30 -32 -16 -66 -30 -75
-30 -9 0 -20 -4 -25 -9 -6 -5 -35 -23 -65 -39 -30 -16 -73 -39 -95 -52 -42
-24 -130 -73 -178 -97 -22 -12 -27 -21 -25 -42 3 -29 5 -29 173 -51 218 -28
289 -40 405 -70 111 -29 123 -35 87 -49 -16 -6 -32 -11 -37 -11 -4 0 -25 -9
-47 -19 -21 -11 -76 -38 -123 -60 -87 -41 -167 -100 -303 -223 -65 -58 -78
-75 -75 -97 3 -26 4 -26 78 -24 89 1 303 20 380 33 102 16 324 39 430 44 58 3
158 8 222 12 74 4 139 3 175 -4 32 -6 117 -16 188 -22 146 -13 314 -45 332
-63 11 -12 1 -94 -27 -222 -16 -74 -28 -172 -41 -344 l-12 -154 28 -23 c21
-17 42 -23 76 -22 26 0 53 -3 60 -7 6 -4 27 -12 45 -16 19 -5 49 -13 67 -18
17 -5 77 -21 132 -35 55 -14 116 -30 135 -35 19 -5 61 -15 94 -22 32 -7 60
-18 62 -23 2 -6 -23 -72 -57 -146 -33 -74 -67 -151 -76 -170 -8 -19 -19 -42
-24 -50 -13 -21 -24 -45 -51 -114 l-23 -58 -50 5 c-28 3 -58 1 -67 -4 -20 -11
-51 -92 -76 -199 -45 -191 -63 -279 -72 -351 -5 -42 -14 -105 -20 -142 -15
-96 -15 -319 1 -348 17 -33 39 -48 71 -49 20 0 29 -6 32 -23 5 -23 6 -32 31
-301 9 -93 18 -173 21 -178 4 -5 14 -42 24 -82 10 -40 25 -90 35 -112 9 -21
21 -48 25 -59 91 -225 189 -334 340 -379 l45 -14 -30 -12 c-94 -37 -98 -41
-111 -108 -22 -106 -33 -246 -40 -482 -12 -439 -6 -550 30 -573 12 -8 32 -17
46 -20 14 -3 43 -11 65 -17 22 -6 59 -16 83 -21 23 -5 63 -14 90 -20 152 -34
637 -46 837 -21 78 10 431 63 523 79 31 5 32 4 32 -32 0 -20 8 -49 18 -63 38
-55 38 -56 -1 -49 -74 12 -87 -42 -27 -115 22 -26 43 -39 78 -47 33 -8 51 -19
57 -34 20 -44 68 -56 223 -57 142 0 144 0 185 29 23 16 68 57 100 91 54 58 59
62 90 55 89 -20 432 -39 964 -54 216 -6 453 -17 525 -25 73 -9 192 -20 263
-26 138 -10 240 -21 450 -46 277 -33 263 -31 408 -63 71 -16 119 -29 197 -51
41 -12 86 -24 100 -27 14 -3 30 -9 35 -13 6 -3 30 -12 55 -20 25 -7 49 -17 55
-22 5 -4 17 -8 27 -8 10 0 26 -4 36 -9 74 -37 106 -51 118 -51 8 0 22 -4 32
-9 9 -5 31 -14 47 -21 17 -7 38 -16 47 -21 10 -5 26 -9 36 -9 10 0 22 -4 27
-8 6 -4 28 -14 50 -21 22 -7 50 -17 62 -23 49 -24 73 27 32 70 -11 13 -27 38
-34 57 -8 18 -19 36 -25 40 -5 3 -34 38 -64 78 -30 40 -72 90 -93 112 -20 22
-64 72 -98 110 -33 39 -95 105 -137 149 -81 81 -94 102 -55 87 12 -5 42 -14
67 -21 72 -19 183 -51 208 -61 13 -5 37 -9 54 -9 41 0 148 -20 170 -31 10 -5
29 -9 42 -9 14 0 28 -4 31 -10 3 -5 18 -10 33 -10 15 0 52 -9 82 -20 67 -25
96 -25 109 -3 12 22 -6 57 -49 98 -18 17 -54 56 -80 87 -40 47 -186 183 -268
250 -32 26 -381 258 -387 258 -4 0 -25 13 -48 29 -59 40 -115 71 -130 71 -7 0
-32 9 -54 20 -23 11 -72 29 -109 41 -38 11 -78 25 -89 29 -11 5 -38 14 -60 21
-22 7 -44 17 -50 21 -5 4 -17 8 -27 8 -10 0 -26 4 -36 9 -31 15 -88 31 -114
31 -15 0 -28 6 -31 13 -4 11 12 92 32 167 6 19 17 68 27 108 19 84 17 89 -54
125 -26 13 -56 28 -67 34 -43 24 -203 87 -245 97 -50 12 -53 18 -32 77 58 163
76 297 85 619 4 131 5 134 28 141 13 4 49 14 79 23 30 9 78 21 105 27 28 5 70
15 95 20 80 18 153 29 221 35 107 10 107 11 130 215 11 96 22 192 24 214 24
233 50 387 99 595 21 88 20 133 -2 153 -10 10 -24 17 -30 17 -7 0 -31 8 -55
19 -23 10 -58 24 -77 31 -19 7 -44 16 -55 20 -29 12 -63 20 -130 30 -33 5 -80
14 -105 20 -25 6 -83 15 -130 20 -47 4 -107 13 -135 19 -27 5 -66 12 -86 14
-52 6 -59 13 -59 58 0 22 -7 55 -15 75 -17 42 -14 53 29 82 64 44 139 128 215
242 70 104 82 117 132 141 57 28 215 82 339 118 41 12 89 26 106 31 17 6 46
10 66 10 32 0 68 23 68 45 0 4 12 33 26 64 41 89 52 114 57 141 9 41 39 154
48 175 13 33 20 75 34 181 10 86 17 109 44 147 17 25 31 50 31 54 0 5 8 27 19
49 10 21 24 64 30 94 7 30 17 69 22 86 14 47 15 222 1 236 -7 7 -12 19 -12 27
0 8 -18 38 -41 67 -44 58 -147 124 -193 124 -13 0 -28 5 -31 10 -3 6 -16 10
-29 10 -12 0 -26 4 -31 9 -6 5 -64 15 -131 22 -92 9 -131 10 -167 1 -25 -7
-60 -12 -77 -12 -32 0 -121 -39 -152 -67 -9 -8 -26 -39 -38 -69 -16 -38 -29
-56 -44 -59 -11 -2 -127 -7 -256 -10 -129 -4 -271 -11 -315 -16 -44 -5 -105
-11 -135 -14 -30 -3 -77 -9 -105 -15 -80 -15 -184 -20 -191 -9 -3 5 4 58 15
117 70 362 111 674 111 845 0 130 -37 299 -87 398 -13 26 -23 50 -23 54 0 4
-28 48 -62 98 -63 93 -214 254 -280 298 -19 13 -63 44 -97 67 -35 24 -83 51
-109 59 -26 9 -51 20 -56 24 -6 5 -24 9 -42 9 -48 0 -75 50 -47 89 16 23 10
41 -14 41 -8 0 -41 -12 -73 -26 -70 -31 -96 -29 -92 6 2 14 8 30 13 36 5 6 6
14 2 17 -17 17 -60 2 -176 -60 -28 -15 -81 -11 -92 7 -3 5 12 18 35 30 41 21
52 43 24 54 -9 3 -16 6 -17 5 -1 0 -22 -7 -47 -15z m-100 -706 c0 -16 -3 -19
-11 -11 -6 6 -8 16 -5 22 11 17 16 13 16 -11z m-485 -68 c65 -13 114 -25 205
-49 112 -29 136 -38 170 -57 26 -16 34 -17 63 -5 222 90 353 107 607 81 141
-15 196 -28 286 -71 184 -87 249 -212 256 -491 2 -69 -1 -130 -5 -135 -12 -11
-291 -17 -283 -5 6 10 81 26 180 39 33 4 61 14 64 21 5 16 -70 16 -190 1 -67
-9 -92 -9 -101 0 -21 21 7 30 126 42 84 9 117 16 117 26 0 10 -24 13 -98 13
-54 0 -102 3 -105 7 -16 15 18 33 62 33 44 0 71 12 71 33 0 6 -25 7 -61 3 -41
-5 -65 -3 -75 5 -23 19 -16 39 16 46 22 4 30 11 27 22 -2 9 -10 14 -18 11 -27
-9 -144 -5 -142 5 1 6 21 15 44 20 23 6 45 17 47 24 4 11 -6 13 -49 7 -30 -3
-99 -8 -154 -12 -125 -7 -145 -11 -145 -29 0 -12 14 -15 66 -15 60 0 65 -2 53
-16 -8 -10 -22 -14 -38 -11 -33 7 -93 -5 -98 -19 -6 -19 42 -33 83 -23 53 12
66 11 62 -3 -3 -8 -28 -15 -59 -18 -39 -4 -54 -9 -54 -20 0 -11 11 -15 47 -13
34 1 48 -3 52 -14 7 -18 -12 -45 -28 -40 -14 5 -46 -11 -46 -23 0 -6 13 -10
29 -10 58 0 78 -21 44 -45 -17 -13 -17 -14 0 -32 22 -25 22 -50 0 -61 -35 -18
-281 -44 -303 -32 -11 6 -49 4 -106 -5 -97 -16 -280 -20 -288 -7 -8 13 83 31
189 38 98 7 140 18 130 34 -3 5 -24 10 -46 10 -24 0 -38 4 -34 10 3 6 25 10
48 10 23 0 67 9 97 19 49 16 55 21 58 49 4 41 -44 77 -115 87 -58 7 -76 22
-48 37 24 14 -1 29 -33 21 -18 -4 -24 -1 -29 17 -6 21 -10 22 -67 16 -34 -4
-104 -9 -156 -13 -79 -5 -98 -10 -116 -28 -12 -13 -38 -25 -58 -29 -40 -8 -76
-46 -76 -82 0 -13 13 -32 32 -47 31 -25 31 -25 10 -38 -12 -8 -22 -20 -22 -28
0 -11 17 -12 88 -7 355 25 485 13 202 -18 -235 -26 -355 -29 -427 -12 -35 9
-93 23 -130 32 -38 8 -88 24 -113 34 -25 11 -76 26 -115 34 -167 34 -361 79
-379 88 -12 7 -15 13 -8 20 12 12 104 -3 342 -58 85 -19 173 -39 195 -44 50
-11 70 10 25 25 -48 16 -30 30 39 30 71 1 96 20 41 31 -21 5 -30 12 -28 23 4
17 12 17 66 6 26 -6 32 -4 32 9 0 9 -8 16 -18 16 -24 0 -64 29 -56 42 4 5 21
7 39 4 19 -4 36 -2 40 3 7 12 -26 31 -54 31 -24 0 -54 28 -45 42 3 5 17 7 29
4 32 -8 42 12 13 23 -57 21 -101 32 -190 45 -53 8 -112 18 -132 21 -29 6 -36
4 -36 -9 0 -9 11 -18 28 -21 70 -15 87 -22 87 -35 0 -16 -11 -17 -100 -9 -45
4 -50 2 -50 -16 0 -17 -6 -20 -43 -17 -32 2 -42 -1 -42 -13 0 -8 12 -17 28
-21 15 -3 40 -10 56 -15 16 -5 39 -9 51 -9 28 0 52 -27 38 -41 -6 -6 -19 -7
-34 -1 -13 6 -65 18 -116 27 -88 17 -126 14 -105 -7 14 -14 168 -47 218 -48
41 0 72 -20 60 -38 -3 -5 -48 1 -103 14 -54 13 -110 24 -125 24 -35 0 -119 18
-137 29 -21 14 -16 60 19 163 73 216 181 329 348 363 75 16 321 13 407 -5z
m-243 -437 c42 -38 4 -113 -58 -113 -54 0 -72 55 -33 104 24 30 63 34 91 9z
m1372 8 c8 -12 -20 -22 -40 -14 -13 5 -13 7 -2 14 17 11 35 11 42 0z m-1544
-11 c0 -5 -4 -10 -9 -10 -6 0 -13 5 -16 10 -3 6 1 10 9 10 9 0 16 -4 16 -10z
m1632 -81 c25 -33 18 -61 -23 -90 -55 -39 -102 -2 -85 66 6 25 50 56 75 52 8
-1 23 -14 33 -28z m-807 -9 c4 -6 -7 -10 -25 -10 -18 0 -29 4 -25 10 3 6 15
10 25 10 10 0 22 -4 25 -10z m-892 -165 c58 -17 76 -35 35 -35 -44 0 -140 28
-157 45 -15 16 -14 17 24 12 22 -2 66 -12 98 -22z m-218 -15 c17 -5 53 -16 80
-25 66 -19 240 -32 249 -17 5 8 19 6 49 -4 61 -22 175 -48 343 -80 11 -2 33
-15 49 -30 27 -25 30 -26 124 -20 53 4 110 3 126 -2 l30 -9 -25 -13 c-14 -8
-66 -16 -122 -18 -80 -4 -98 -7 -98 -20 0 -13 17 -14 135 -8 74 3 159 11 187
17 29 6 94 14 143 18 51 4 106 15 125 24 35 18 90 28 270 48 58 6 124 15 146
19 24 4 50 3 60 -3 18 -10 315 -4 346 8 9 4 19 17 22 31 7 26 33 33 42 10 3
-7 1 -29 -3 -47 l-9 -34 -120 -10 c-121 -10 -155 -26 -74 -35 37 -4 45 -9 50
-30 5 -22 11 -25 56 -25 46 0 49 -2 52 -27 3 -22 -10 -40 -65 -95 -58 -59 -81
-74 -158 -105 -81 -33 -211 -67 -305 -82 -19 -2 -73 -12 -120 -20 -121 -22
-197 -26 -535 -32 -288 -5 -370 0 -515 27 -104 20 -235 51 -245 59 -5 4 -28
13 -49 20 -107 34 -273 175 -317 269 -28 59 -22 69 39 63 43 -4 52 -2 61 17 9
15 21 21 46 21 58 0 39 15 -42 34 -115 26 -126 30 -131 45 -4 11 3 13 34 7 63
-13 146 -27 192 -33 39 -5 43 -3 40 13 -2 14 -13 20 -38 21 -43 4 -177 31
-207 44 -13 4 -23 14 -23 20 0 12 45 7 105 -11z m1943 -27 c-21 -2 -57 -2 -80
0 -24 2 -7 4 37 4 44 0 63 -2 43 -4z m105 -52 c8 -8 -4 -11 -38 -12 -28 0 -69
-2 -92 -5 -33 -4 -43 -2 -43 10 0 8 4 16 10 18 23 7 154 -2 163 -11z m82 -1
c-3 -5 -15 -10 -26 -10 -10 0 -19 5 -19 10 0 6 12 10 26 10 14 0 23 -4 19 -10z
m-2205 -50 c0 -5 -4 -10 -9 -10 -6 0 -13 5 -16 10 -3 6 1 10 9 10 9 0 16 -4
16 -10z m46 -18 c-22 -5 -30 3 -21 18 5 8 11 7 22 -2 15 -12 14 -13 -1 -16z
m2279 -51 c8 -14 -9 -21 -35 -14 -22 6 -23 7 -4 14 26 10 32 10 39 0z m-4175
-171 c58 -5 166 -14 240 -20 130 -11 220 -28 360 -69 36 -10 107 -30 158 -45
51 -14 116 -35 145 -46 28 -10 116 -35 193 -54 234 -58 288 -75 302 -93 10
-14 12 -40 7 -103 -7 -96 -15 -106 -79 -114 -22 -3 -81 -11 -131 -17 -95 -12
-264 -7 -395 13 -127 18 -147 25 -154 53 -3 13 -21 35 -39 48 -17 13 -76 57
-131 98 -92 69 -116 87 -177 131 -13 10 -64 47 -113 83 -49 36 -95 65 -102 65
-31 0 -13 -40 31 -70 25 -17 93 -67 150 -111 58 -43 107 -79 110 -79 3 0 18
-11 33 -24 31 -28 84 -65 124 -85 36 -19 94 -68 88 -74 -5 -5 -229 24 -332 43
-63 12 -98 2 -98 -27 0 -9 -4 -30 -9 -47 -23 -75 -67 -259 -82 -345 l-14 -73
-45 7 c-25 3 -70 11 -100 16 -30 6 -97 14 -149 19 -52 5 -106 12 -120 15 -14
4 -150 7 -301 6 -258 -1 -453 -14 -620 -41 -139 -23 -170 -24 -170 -8 0 19
-42 48 -70 48 -27 0 -27 -40 0 -47 11 -3 20 -9 20 -13 0 -8 -84 -20 -140 -20
l-35 0 51 48 c58 54 69 63 149 118 78 53 235 128 305 146 43 11 175 36 214 40
16 2 34 11 40 20 19 31 -5 42 -139 64 -16 2 -61 9 -100 15 -38 7 -90 18 -115
26 -25 8 -67 19 -95 24 -149 25 -176 34 -168 55 9 23 -17 44 -53 44 -42 0 -46
-23 -6 -45 26 -15 24 -16 -43 -10 -116 11 -112 18 73 113 39 21 66 35 119 63
74 39 108 45 141 23 15 -10 49 -30 77 -44 27 -15 75 -42 105 -60 30 -18 80
-46 110 -63 30 -17 73 -42 95 -57 22 -15 57 -37 78 -49 20 -11 53 -30 72 -41
19 -11 52 -30 73 -41 20 -12 48 -29 62 -39 27 -18 108 -63 203 -113 32 -17 95
-61 140 -99 45 -37 90 -68 100 -68 25 0 21 37 -5 51 -13 7 -39 28 -58 48 -34
34 -106 81 -215 141 -27 15 -119 68 -203 118 -84 51 -155 92 -158 92 -3 0 -24
13 -47 29 -23 16 -59 38 -80 50 -60 34 -99 56 -147 84 -25 15 -73 41 -107 57
-35 17 -63 34 -63 38 0 9 50 32 70 32 9 0 19 3 23 6 8 9 160 60 257 88 47 13
128 29 180 36 52 6 113 16 135 21 94 22 424 33 575 19z m5928 -132 c-6 -18
-28 -21 -28 -4 0 9 7 16 16 16 9 0 14 -5 12 -12z m-223 -187 c55 -37 96 -99
102 -155 5 -40 0 -57 -38 -132 -23 -48 -63 -109 -88 -135 -46 -48 -56 -53
-163 -74 -19 -4 -28 -12 -28 -24 0 -28 29 -78 58 -102 24 -18 36 -20 97 -16
93 8 111 0 107 -45 -4 -41 4 -46 89 -55 57 -6 98 7 176 57 12 8 25 11 29 7 8
-7 -14 -145 -26 -162 -3 -5 -12 -30 -19 -55 -7 -25 -17 -55 -22 -68 -5 -13 -9
-31 -9 -41 0 -9 -9 -36 -20 -59 -11 -22 -20 -47 -20 -54 -1 -31 -28 -50 -62
-45 -277 45 -567 83 -698 92 -41 3 -97 10 -125 15 -27 5 -83 11 -123 15 -103
9 -490 7 -505 -2 -6 -4 -43 -11 -82 -14 -38 -4 -99 -12 -135 -18 -36 -7 -87
-16 -115 -21 -27 -4 -68 -13 -90 -19 -22 -6 -58 -15 -80 -21 -22 -5 -60 -14
-85 -20 -25 -7 -81 -20 -125 -30 -135 -31 -208 -50 -219 -58 -6 -5 -49 -19
-96 -31 -47 -13 -150 -45 -230 -71 -179 -58 -259 -82 -375 -110 -49 -12 -110
-29 -135 -37 -25 -8 -63 -18 -85 -23 -22 -4 -71 -18 -110 -29 -75 -23 -130
-37 -210 -51 -27 -6 -70 -14 -95 -20 -55 -13 -141 -27 -240 -39 -41 -6 -88
-12 -105 -15 -16 -3 -104 -10 -195 -16 -269 -16 -614 20 -915 94 -99 25 -211
52 -250 61 -38 10 -88 23 -110 30 -22 6 -60 18 -85 25 -25 7 -56 16 -70 20
-14 5 -47 14 -73 22 -27 7 -53 18 -59 25 -9 12 -7 60 16 288 2 22 14 94 25
160 12 66 26 148 31 183 6 35 16 96 24 135 8 40 16 83 19 97 15 81 68 303 74
315 7 11 21 8 78 -21 39 -20 93 -45 120 -56 28 -11 64 -25 80 -33 121 -52 343
-112 561 -149 116 -20 394 -21 558 -1 66 8 184 21 261 30 202 24 357 51 650
115 291 63 440 94 515 106 95 15 150 25 295 53 92 18 178 33 265 46 19 3 80
10 135 15 55 5 125 12 155 15 95 9 409 45 575 66 251 31 760 64 855 56 30 -3
81 0 112 7 32 6 92 10 135 8 64 -4 85 -9 118 -31z m230 -152 c-4 -11 -1 -27 6
-35 21 -25 -61 -170 -150 -266 -86 -92 -140 -131 -179 -126 -40 4 -33 28 12
43 56 20 85 44 133 111 70 97 123 214 123 271 0 34 15 45 43 31 12 -6 16 -16
12 -29z m130 -45 c-4 -26 -2 -45 5 -49 7 -4 2 -16 -15 -32 -14 -14 -25 -30
-25 -35 0 -21 -96 -151 -134 -181 -101 -81 -138 -86 -65 -9 99 102 176 239
164 291 -5 23 -1 33 20 49 40 31 58 19 50 -34z m114 -23 c9 -6 12 -18 7 -37
-4 -16 -9 -40 -12 -54 -3 -14 -14 -44 -25 -67 -10 -24 -19 -45 -19 -48 0 -11
-83 -128 -118 -167 -45 -49 -152 -100 -152 -71 0 3 21 32 48 62 65 76 126 158
151 204 12 20 29 52 40 70 16 28 17 36 5 52 -12 16 -10 21 19 41 37 26 37 27
56 15z m-5504 -48 c200 -37 391 -44 572 -22 136 16 137 15 130 -68 -4 -37 -11
-71 -17 -77 -15 -15 -89 -16 -175 -4 -89 12 -304 55 -375 75 -30 8 -66 17 -80
20 -43 8 -229 86 -225 94 6 8 56 3 170 -18z m4260 -831 c33 -6 40 -12 43 -32
3 -31 -47 -124 -70 -128 -40 -8 -151 131 -125 157 12 12 90 14 152 3z m624
-82 c188 -30 208 -39 114 -55 -34 -5 -48 -3 -72 14 -30 22 -61 19 -61 -5 0 -7
7 -17 16 -22 12 -7 13 -11 4 -17 -7 -4 -23 4 -39 19 -28 27 -55 34 -66 17 -3
-6 7 -21 22 -35 l27 -25 -57 -26 c-84 -36 -90 -34 -62 27 8 18 19 52 25 76 10
40 13 42 47 42 20 0 66 -5 102 -10z m-730 -314 c30 -47 26 -51 -14 -15 -37 34
-44 49 -21 49 8 0 24 -15 35 -34z m-1949 -62 c0 -14 -21 -19 -33 -7 -9 9 13
34 24 27 5 -3 9 -12 9 -20z m2008 -30 c-10 -10 -28 6 -28 24 0 15 1 15 17 -1
9 -9 14 -19 11 -23z m-2493 -54 c-3 -5 -10 -10 -16 -10 -5 0 -9 5 -9 10 0 6 7
10 16 10 8 0 12 -4 9 -10z m383 -11 c-2 -6 -8 -10 -13 -10 -5 0 -11 4 -13 10
-2 6 4 11 13 11 9 0 15 -5 13 -11z m-1398 -79 c69 0 78 -11 85 -107 l6 -83
-33 -20 c-46 -28 -239 -120 -253 -120 -3 0 -28 -11 -57 -25 -28 -14 -60 -25
-69 -25 -10 0 -20 -4 -23 -9 -3 -4 -26 -14 -51 -21 -25 -7 -48 -17 -51 -21 -8
-14 -34 -11 -40 4 -5 14 43 98 126 222 26 39 55 86 65 105 10 19 29 53 43 74
l24 39 91 -7 c49 -3 111 -6 137 -6z m1700 -50 c22 -17 23 -19 7 -26 -19 -7
-60 23 -51 37 8 13 16 11 44 -11z m-226 -141 c-10 -17 -44 -10 -44 9 0 10 3
22 7 25 9 9 44 -23 37 -34z m-1034 15 c0 -9 -7 -14 -17 -12 -25 5 -28 28 -4
28 12 0 21 -6 21 -16z m-232 -61 c-4 -22 -48 -31 -48 -10 0 19 10 27 32 27 13
0 18 -6 16 -17z m-99 -60 c6 -21 11 -55 11 -75 0 -20 5 -40 10 -43 6 -3 10
-22 10 -42 0 -19 12 -73 26 -119 15 -47 24 -88 20 -91 -5 -6 -125 4 -326 26
-93 10 -306 56 -354 76 -19 8 -38 19 -41 25 -11 17 13 37 52 45 19 3 58 17 87
29 28 13 69 29 91 36 22 7 67 25 100 40 77 36 186 80 197 80 4 0 8 -11 8 -25
0 -17 9 -29 30 -40 66 -34 84 -4 20 35 -22 14 -40 28 -40 33 0 9 61 47 77 47
7 0 17 -17 22 -37z m464 -20 c10 -6 -22 -43 -36 -43 -16 0 -47 31 -47 47 0 11
9 12 38 7 20 -4 41 -9 45 -11z m3007 -8 c63 -8 135 -19 160 -24 25 -6 83 -15
130 -22 73 -10 230 -41 350 -68 49 -12 127 -39 183 -64 46 -21 48 -23 43 -57
-9 -65 -17 -105 -26 -125 -21 -52 -41 -165 -70 -400 -6 -49 -15 -117 -20 -150
-6 -33 -15 -109 -20 -170 -6 -60 -12 -116 -15 -123 -5 -15 -61 -8 -79 9 -6 5
-18 9 -28 9 -10 0 -37 9 -61 19 -23 11 -55 22 -72 24 -16 3 -61 12 -100 20
-134 28 -231 40 -400 48 -93 4 -253 13 -355 19 -246 15 -844 -6 -908 -31 -13
-5 -61 -9 -107 -9 -46 0 -87 -4 -90 -10 -3 -5 -30 -10 -58 -10 -29 0 -84 -7
-122 -15 -39 -9 -95 -20 -125 -25 -30 -5 -75 -14 -100 -20 -25 -6 -70 -14
-100 -19 -30 -6 -98 -21 -150 -35 -52 -13 -131 -30 -175 -36 -44 -7 -102 -18
-130 -25 -27 -7 -81 -17 -120 -23 -38 -5 -162 -24 -275 -41 -197 -30 -217 -31
-525 -31 -335 0 -572 12 -690 35 -119 24 -249 57 -262 67 -12 10 -7 76 7 91 4
5 33 1 64 -9 49 -15 62 -16 94 -5 66 24 104 71 116 146 5 32 1 52 -22 100 -34
72 -143 234 -183 275 -16 15 -29 36 -29 45 0 26 51 198 63 214 8 9 24 11 50 8
45 -6 107 -59 138 -119 23 -44 37 -55 45 -33 18 45 -83 178 -143 190 -46 10
-58 21 -56 51 4 48 23 54 103 28 91 -30 225 -59 435 -93 164 -28 335 -23 502
13 38 8 104 21 148 30 44 8 123 24 175 36 52 11 122 25 155 31 33 5 98 16 145
24 47 8 99 16 115 19 17 2 48 9 70 15 22 7 87 21 145 32 158 31 191 37 235 49
127 35 394 81 580 100 73 7 258 29 425 49 124 15 814 12 940 -4z m-2940 -39
c0 -8 -9 -16 -20 -19 -22 -6 -27 12 -8 31 13 13 28 7 28 -12z m-432 2 c-6 -18
-28 -21 -28 -4 0 9 7 16 16 16 9 0 14 -5 12 -12z m882 -13 c0 -8 -7 -15 -15
-15 -9 0 -12 6 -9 15 4 8 10 15 15 15 5 0 9 -7 9 -15z m167 -29 c-9 -23 -37
-20 -37 3 0 21 20 33 34 20 5 -4 6 -15 3 -23z m-382 -4 c0 -18 -20 -15 -23 4
-3 10 1 15 10 12 7 -3 13 -10 13 -16z m-545 -27 c0 -9 -6 -12 -15 -9 -8 4 -15
10 -15 15 0 5 7 9 15 9 8 0 15 -7 15 -15z m225 5 c11 -17 -5 -32 -21 -19 -8 6
-14 15 -14 20 0 12 27 11 35 -1z m-55 -51 c0 -5 -4 -9 -10 -9 -5 0 -10 7 -10
16 0 8 5 12 10 9 6 -3 10 -10 10 -16z m667 -17 c-16 -15 -19 -15 -27 -2 -7 11
-5 19 7 28 25 18 42 -3 20 -26z m-857 8 c0 -5 -4 -10 -10 -10 -5 0 -10 5 -10
10 0 6 5 10 10 10 6 0 10 -4 10 -10z m-1277 -21 c7 -12 4 -28 -11 -60 -27 -56
-58 -166 -72 -249 -6 -36 -17 -103 -25 -150 -11 -65 -35 -414 -35 -506 0 -26
-39 -15 -54 15 -11 21 -14 55 -12 127 3 104 45 422 69 534 8 36 22 99 32 140
9 41 21 89 27 105 23 61 58 80 81 44z m1353 -20 c10 -17 -13 -36 -27 -22 -12
12 -4 33 11 33 5 0 12 -5 16 -11z m102 -17 c3 -9 -2 -13 -14 -10 -9 1 -19 9
-22 16 -3 9 2 13 14 10 9 -1 19 -9 22 -16z m-1278 -38 c0 -8 -4 -12 -10 -9 -5
3 -10 10 -10 16 0 5 5 9 10 9 6 0 10 -7 10 -16z m1105 -14 c11 -18 -5 -31 -26
-20 -11 6 -17 15 -14 21 8 12 32 12 40 -1z m101 -14 c18 -14 18 -15 2 -21 -24
-9 -48 1 -48 20 0 19 20 19 46 1z m-1156 -87 c0 -5 -7 -9 -15 -9 -15 0 -20 12
-9 23 8 8 24 -1 24 -14z m-190 -14 c0 -8 -7 -15 -15 -15 -8 0 -15 7 -15 15 0
8 7 15 15 15 8 0 15 -7 15 -15z m140 -159 c0 -18 -16 -29 -30 -21 -13 8 -1 35
16 35 8 0 14 -6 14 -14z m-117 -62 c9 -10 -4 -34 -19 -34 -8 0 -14 6 -14 13 0
22 19 35 33 21z m0 -79 c4 -8 3 -16 -1 -19 -13 -8 -35 11 -28 23 10 15 23 14
29 -4z m283 -122 c64 -89 114 -188 114 -224 0 -37 -23 -83 -52 -103 -38 -27
-139 -16 -160 17 -16 25 -2 322 18 386 6 19 25 2 80 -76z m-306 7 c0 -21 -15
-27 -25 -10 -7 12 2 30 16 30 5 0 9 -9 9 -20z m37 -187 c-3 -10 -5 -4 -5 12 0
17 2 24 5 18 2 -7 2 -21 0 -30z m107 -70 c-6 -22 -8 -23 -16 -9 -5 9 -6 31 -2
49 6 31 7 31 15 9 5 -13 6 -35 3 -49z m-124 -135 c0 -12 -28 -10 -35 2 -4 6
-4 19 0 28 6 16 8 15 21 -2 8 -11 14 -23 14 -28z m4775 17 c130 -25 187 -38
215 -49 8 -3 29 -11 45 -17 l30 -12 -35 -8 c-51 -11 -100 -23 -235 -54 -173
-41 -169 -41 -176 25 -3 30 -9 74 -14 98 -7 40 -6 42 16 42 13 0 83 -11 154
-25z m-4825 -146 c0 -5 -4 -9 -10 -9 -5 0 -10 7 -10 16 0 8 5 12 10 9 6 -3 10
-10 10 -16z m307 -45 c189 -52 370 -74 688 -83 154 -5 307 -7 340 -5 33 2 105
6 159 9 l100 6 78 -82 c43 -45 77 -86 76 -90 -7 -21 -219 -172 -362 -259 -32
-19 -84 -52 -116 -72 -63 -39 -207 -114 -335 -173 -44 -21 -99 -47 -122 -58
-47 -22 -64 -17 -45 13 16 26 26 47 46 93 34 79 -16 232 -65 201 -5 -3 -20
-27 -34 -54 -35 -69 -79 -100 -143 -100 -61 0 -135 30 -180 73 -38 36 -92 126
-92 152 0 9 -14 48 -31 86 -27 62 -48 155 -66 286 -10 78 3 85 104 57z m3708
-51 c16 -16 35 -55 35 -73 0 -5 -15 -13 -32 -18 -18 -6 -67 -24 -108 -42 -41
-18 -88 -38 -105 -45 -228 -96 -234 -99 -385 -172 -74 -37 -154 -79 -177 -95
-23 -15 -44 -28 -47 -28 -4 0 -36 -18 -72 -40 -76 -46 -94 -42 -94 20 0 21 -8
58 -19 82 -30 69 -70 151 -83 170 -8 11 -9 21 -3 27 8 8 80 26 185 47 14 3 34
9 45 14 11 5 34 11 50 15 17 3 46 10 65 14 88 22 139 33 195 42 33 5 89 16
125 25 36 8 93 22 128 30 34 8 88 18 120 21 31 3 75 9 97 13 59 12 62 11 80
-7z m-1295 -139 c0 -16 -16 -19 -25 -4 -8 13 4 32 16 25 5 -4 9 -13 9 -21z
m1367 -6 c40 -52 41 -254 3 -486 -16 -95 -24 -104 -90 -92 -25 4 -80 10 -123
13 -42 4 -81 8 -86 11 -4 3 -41 2 -82 -3 -41 -4 -85 -5 -99 -1 -14 4 -72 3
-130 -2 -335 -28 -436 -34 -447 -26 -20 15 -4 80 26 105 14 13 31 23 37 23 6
0 19 9 29 20 10 11 22 20 28 20 5 0 37 17 71 37 95 59 134 80 226 124 85 41
108 52 230 107 36 16 94 43 130 59 141 66 227 100 256 102 6 1 16 -5 21 -11z
m-2197 -148 c36 -26 76 -53 90 -60 80 -43 223 -146 271 -197 94 -98 158 -225
125 -252 -12 -10 -118 -31 -301 -58 -208 -30 -267 -41 -376 -66 -35 -9 -93
-21 -129 -27 -36 -6 -85 -15 -110 -20 -25 -5 -74 -14 -110 -20 -36 -6 -85 -15
-110 -20 -25 -5 -79 -13 -120 -19 -41 -6 -109 -15 -150 -21 -41 -5 -157 -11
-256 -11 -146 -2 -195 2 -250 16 -66 17 -93 30 -83 39 2 2 49 16 104 30 55 15
111 35 125 44 14 10 45 27 70 39 465 222 580 283 805 426 75 48 273 194 303
224 16 15 16 15 102 -47z m401 -93 c-13 -13 -26 -3 -16 12 3 6 11 8 17 5 6 -4
6 -10 -1 -17z m560 -120 c-5 -5 -17 -7 -26 -3 -14 5 -15 9 -5 21 10 12 16 13
27 4 9 -8 10 -16 4 -22z m-117 -62 c3 -8 1 -15 -4 -15 -6 0 -10 7 -10 15 0 8
2 15 4 15 2 0 6 -7 10 -15z m-1964 -24 c0 -28 -37 -69 -82 -92 -35 -18 -52
-20 -117 -15 -160 13 -156 13 -156 -9 0 -28 55 -44 168 -50 51 -2 93 -8 95
-13 1 -5 -13 -17 -32 -27 -32 -17 -40 -18 -83 -6 -27 7 -64 17 -83 22 -19 4
-47 11 -62 15 -21 5 -29 2 -35 -11 -9 -24 15 -39 98 -65 38 -12 71 -26 74 -30
3 -5 -12 -14 -34 -21 -35 -10 -50 -9 -113 10 -40 12 -90 27 -111 33 -20 6 -42
17 -48 24 -17 20 0 36 31 29 19 -4 33 -1 44 10 15 15 15 19 -4 45 -26 37 -25
41 8 34 19 -4 32 -1 42 11 11 13 10 20 -8 45 -22 29 -29 60 -14 60 5 0 37 -14
73 -31 116 -57 227 -49 294 21 33 34 55 39 55 11z m1690 -58 c0 -12 -7 -14
-27 -8 -33 8 -39 13 -48 43 l-6 22 40 -21 c23 -11 41 -28 41 -36z m1595 -153
c199 -24 375 -56 423 -76 19 -8 43 -14 54 -14 49 0 298 -98 360 -142 30 -21
30 -30 1 -138 -8 -30 -23 -100 -34 -154 -10 -55 -30 -138 -45 -185 -14 -47
-29 -102 -34 -121 -4 -19 -13 -55 -20 -80 -6 -25 -17 -67 -24 -95 -7 -27 -15
-57 -18 -65 -18 -47 -48 -149 -48 -162 0 -39 -25 -40 -116 -4 -88 34 -260 97
-384 141 -71 25 -210 50 -335 60 -43 3 -115 13 -160 21 -63 13 -127 15 -305
10 -124 -3 -261 -9 -305 -15 -44 -5 -154 -16 -245 -25 -91 -9 -181 -19 -200
-23 -19 -4 -46 -8 -60 -8 -36 -2 -135 -24 -205 -46 -33 -10 -116 -32 -185 -49
-69 -17 -134 -35 -145 -40 -11 -5 -33 -11 -50 -13 -16 -3 -73 -15 -125 -27
-52 -12 -122 -24 -155 -26 -33 -2 -67 -7 -75 -10 -15 -6 -74 -14 -235 -33 -44
-6 -132 -17 -195 -25 -171 -22 -408 -13 -640 24 -117 19 -130 22 -136 31 -3 5
-22 9 -42 10 -20 0 -53 6 -72 13 l-35 13 -5 114 c-5 114 5 778 13 833 2 17 10
32 17 34 7 3 42 -5 79 -16 115 -36 146 -42 237 -48 99 -6 396 10 489 26 33 5
85 15 115 20 30 5 87 14 125 20 145 20 352 57 375 66 24 10 169 41 250 54 30
5 91 15 135 24 454 84 527 94 755 106 102 5 264 16 360 24 261 23 279 24 485
20 109 -2 262 -12 360 -24z m1047 -700 c84 -28 169 -55 188 -61 19 -6 46 -15
60 -21 25 -11 54 -22 100 -41 14 -5 34 -14 45 -20 11 -6 44 -23 73 -39 30 -15
66 -37 82 -48 15 -11 31 -20 34 -20 12 0 361 -238 380 -259 11 -11 23 -21 27
-21 4 0 61 -52 126 -115 92 -89 113 -114 96 -115 -12 0 -25 5 -28 10 -3 6 -19
10 -34 10 -15 0 -31 3 -35 7 -9 10 -112 32 -150 32 -16 1 -43 5 -60 10 -17 5
-51 15 -76 22 -25 7 -79 23 -120 36 -89 29 -236 56 -282 51 -62 -6 -49 -31 94
-177 162 -165 235 -245 308 -335 30 -38 74 -90 98 -116 23 -26 42 -50 42 -52
0 -9 -64 8 -100 26 -18 9 -41 16 -52 16 -10 0 -26 4 -36 9 -9 5 -34 16 -54 25
-21 9 -53 22 -70 30 -18 7 -49 19 -68 26 -43 15 -79 30 -102 41 -10 5 -27 9
-37 9 -11 0 -22 4 -25 9 -3 5 -18 11 -33 14 -52 11 -118 26 -163 37 -25 6 -67
16 -95 21 -27 6 -70 15 -95 20 -70 16 -157 29 -250 39 -47 5 -119 13 -160 19
-167 22 -262 31 -415 42 -212 14 -278 22 -282 34 -2 6 15 34 36 63 22 29 51
76 65 106 l26 54 57 4 c61 4 186 -10 337 -37 48 -9 102 -15 119 -13 28 3 32 8
43 53 31 128 47 183 64 220 21 47 50 144 80 268 11 49 25 96 29 105 5 9 14 29
20 45 6 15 17 27 25 27 8 0 83 -23 168 -50z m-1434 -393 c9 -7 12 -21 8 -40
-11 -52 -21 -57 -125 -58 -152 -2 -295 -16 -491 -48 -30 -5 -82 -14 -115 -19
-57 -9 -224 -47 -254 -57 -15 -6 -12 42 9 132 12 51 12 51 59 58 25 4 91 11
146 15 118 10 306 30 320 34 30 8 431 -6 443 -17z m617 -124 c28 -10 59 -24
70 -31 19 -13 19 -13 -5 -7 -14 3 -55 8 -92 12 -64 6 -68 7 -68 31 0 28 10 27
95 -5z m-521 -5 c3 -7 7 -25 10 -40 8 -34 23 -35 71 -7 28 17 38 19 50 9 8 -7
15 -21 15 -32 0 -27 29 -34 63 -14 30 17 31 16 59 -10 35 -34 35 -47 -2 -106
-35 -56 -91 -101 -120 -96 -21 3 -19 7 24 70 45 66 50 91 19 102 -15 6 -37
-14 -106 -98 -47 -57 -86 -78 -135 -74 l-37 3 28 15 c33 16 122 153 113 175
-11 30 -36 28 -69 -3 -51 -49 -108 -82 -138 -82 -38 0 -36 9 6 50 20 19 53 61
73 92 35 55 68 74 76 46z m-1599 -48 c12 -20 -59 -124 -100 -147 -51 -29 -57
-29 -95 3 -26 22 -31 33 -28 63 l3 36 95 26 c110 32 117 33 125 19z m1445 1
c0 -11 -128 -131 -140 -131 -6 0 -10 5 -10 12 0 18 -49 78 -64 78 -8 0 -19 -7
-26 -15 -10 -13 -9 -19 6 -37 11 -11 33 -27 51 -34 20 -9 30 -19 27 -27 -7
-20 26 -44 74 -54 24 -4 43 -11 43 -15 -1 -5 -1 -17 -1 -28 0 -19 -5 -19 -122
-14 -68 3 -226 9 -353 14 -441 16 -485 21 -485 52 0 6 7 25 16 43 12 26 24 35
59 44 24 6 58 11 75 11 17 0 41 5 52 11 83 45 798 125 798 90z m-1440 -200 c0
-10 7 -24 15 -31 13 -11 21 -9 45 8 34 25 60 28 60 8 0 -24 20 -29 62 -15 37
12 42 11 55 -7 9 -13 12 -32 8 -59 -11 -67 -14 -73 -57 -90 -57 -23 -69 -7
-30 41 24 29 29 41 21 56 -16 31 -41 20 -101 -42 -53 -56 -60 -60 -102 -60
-46 0 -62 15 -28 27 29 10 82 53 82 67 0 8 -7 19 -15 26 -13 11 -24 9 -62 -10
-53 -26 -163 -34 -170 -12 -3 8 7 12 30 12 50 0 100 24 133 64 32 39 54 46 54
17z"/>
<path d="M4220 8022 c0 -6 8 -15 18 -20 26 -14 161 -36 169 -28 12 12 -16 29
-64 38 -114 20 -123 21 -123 10z"/>
<path d="M4165 7961 c-17 -28 27 -43 172 -61 51 -5 104 -15 118 -20 27 -10 58
-3 50 11 -7 10 -70 28 -145 40 -96 16 -154 27 -171 34 -10 3 -20 2 -24 -4z"/>
<path d="M5560 7895 c0 -12 13 -14 78 -9 108 9 114 24 9 24 -70 0 -87 -3 -87
-15z"/>
<path d="M5024 7820 c-11 -4 -47 -11 -80 -15 -88 -9 -104 -14 -104 -30 0 -13
10 -14 58 -9 82 10 185 37 190 52 4 14 -32 15 -64 2z"/>
<path d="M5027 7242 c-10 -2 -87 -9 -170 -15 -133 -11 -152 -14 -155 -30 -3
-17 3 -18 95 -12 54 4 116 11 138 16 51 11 155 12 155 1 0 -5 -31 -15 -70 -22
-103 -20 -88 -34 28 -25 53 4 99 9 102 11 2 3 -1 13 -8 24 -10 17 -7 20 26 31
70 22 60 30 -33 27 -50 -2 -98 -5 -108 -6z"/>
<path d="M4823 7163 c-13 -2 -23 -11 -23 -20 0 -13 8 -15 46 -9 26 3 57 6 70
6 15 0 24 6 24 15 0 11 -11 15 -47 14 -27 -1 -58 -4 -70 -6z"/>
<path d="M1454 7065 c-3 -8 -3 -19 1 -25 8 -13 121 -90 133 -90 4 0 17 -8 28
-18 25 -24 234 -162 244 -162 4 0 13 -7 20 -15 7 -8 24 -21 39 -28 53 -28 106
-59 122 -73 28 -25 60 -16 41 12 -7 12 -608 414 -617 414 -3 0 -8 -7 -11 -15z"/>
<path d="M1733 7063 c-8 -19 15 -40 160 -146 184 -135 295 -207 318 -207 24 0
4 32 -38 61 -27 18 -64 45 -83 59 -19 15 -97 73 -172 129 -76 56 -140 106
-143 111 -10 16 -35 11 -42 -7z"/>
<path d="M1195 7050 c-10 -16 2 -27 75 -70 37 -22 89 -56 114 -75 26 -19 48
-35 51 -35 3 0 57 -34 120 -75 63 -41 167 -109 231 -151 130 -85 198 -124 213
-124 25 0 8 31 -31 57 -24 16 -80 55 -125 86 -45 31 -84 57 -87 57 -4 0 -94
59 -201 130 -208 139 -269 177 -297 187 -10 3 -18 9 -18 14 0 12 -37 11 -45
-1z"/>
<path d="M2297 7013 c-14 -13 -5 -24 91 -101 261 -210 382 -291 382 -253 0 7
-181 158 -313 261 -18 13 -53 41 -78 62 -45 37 -68 45 -82 31z"/>
<path d="M1073 6985 c-7 -21 18 -47 72 -75 24 -13 52 -31 61 -41 10 -11 21
-19 26 -19 5 0 50 -30 101 -66 51 -37 99 -69 107 -72 8 -3 55 -32 103 -64 49
-32 90 -58 93 -58 2 0 34 -18 70 -40 36 -22 68 -40 71 -40 2 0 23 -13 46 -28
23 -15 56 -34 72 -41 17 -7 38 -17 47 -22 23 -11 58 -12 58 0 0 8 -74 61 -86
61 -3 0 -26 14 -51 30 -24 17 -46 30 -49 30 -3 0 -29 15 -57 34 -29 18 -74 46
-102 61 -27 15 -68 40 -91 56 -24 16 -46 29 -49 29 -4 0 -19 9 -33 20 -38 29
-391 260 -397 260 -3 0 -8 -7 -12 -15z"/>
<path d="M2513 6964 c-7 -18 -18 -7 137 -130 174 -138 262 -195 277 -180 9 8
-13 28 -141 131 -48 39 -121 98 -163 133 -79 64 -99 73 -110 46z"/>
<path d="M850 6956 c0 -13 48 -48 105 -76 17 -8 62 -36 101 -62 67 -44 86 -55
182 -109 20 -12 42 -25 47 -29 11 -9 63 -39 143 -82 28 -15 77 -41 107 -58 30
-16 80 -43 110 -60 30 -16 80 -43 110 -60 31 -16 88 -56 129 -89 76 -62 108
-77 113 -51 2 10 -28 38 -79 76 -143 104 -148 108 -383 234 -27 15 -67 37 -87
49 -21 11 -54 30 -73 41 -19 11 -52 30 -72 41 -21 12 -50 30 -65 40 -14 11
-29 19 -33 19 -3 0 -32 18 -64 39 -32 22 -74 49 -94 60 -20 12 -54 31 -74 43
-93 53 -123 61 -123 34z"/>
<path d="M2770 6875 c0 -17 5 -21 98 -92 109 -83 207 -152 215 -153 23 -1 -4
34 -80 100 -162 144 -233 187 -233 145z"/>
<path d="M580 6846 c0 -15 34 -42 85 -66 17 -8 48 -26 70 -40 22 -14 54 -32
70 -40 17 -8 57 -32 89 -52 60 -39 96 -48 96 -25 0 12 -147 112 -225 153 -66
34 -119 65 -129 75 -16 14 -56 11 -56 -5z"/>
<path d="M434 6805 c-7 -18 3 -35 21 -35 15 0 96 -38 167 -79 30 -18 48 -8 32
17 -11 16 -34 31 -133 84 -60 32 -79 35 -87 13z"/>
<path d="M3046 6801 c-12 -19 6 -37 88 -94 79 -53 116 -69 116 -48 0 14 -174
151 -192 151 -4 0 -9 -4 -12 -9z"/>
<path d="M3215 6781 c-6 -11 21 -38 64 -64 45 -26 49 -2 6 38 -37 35 -59 43
-70 26z"/>
<path d="M1130 6502 c0 -22 30 -52 51 -52 8 0 19 -4 25 -9 5 -5 62 -37 127
-70 98 -49 119 -57 124 -44 7 18 -17 38 -87 76 -156 84 -221 117 -230 117 -6
0 -10 -8 -10 -18z"/>
<path d="M986 6461 c-13 -21 10 -42 92 -84 48 -24 97 -49 110 -55 61 -33 64
-34 75 -23 18 18 0 36 -69 71 -38 19 -90 46 -115 61 -58 33 -86 43 -93 30z"/>
<path d="M850 6397 c0 -15 9 -28 23 -34 114 -55 159 -73 181 -73 14 0 26 4 26
8 0 12 -29 35 -60 49 -14 6 -54 24 -89 42 -76 37 -81 38 -81 8z"/>
<path d="M701 6376 c-9 -10 -3 -18 26 -38 47 -30 139 -68 147 -60 3 3 6 12 6
21 0 15 -10 22 -92 55 -20 9 -39 20 -43 26 -9 14 -31 12 -44 -4z"/>
<path d="M597 6333 c-15 -15 -5 -33 26 -46 17 -8 49 -22 71 -32 27 -12 41 -14
49 -6 15 15 -5 35 -66 66 -53 26 -69 30 -80 18z"/>
<path d="M505 6283 c-8 -8 -15 -16 -15 -18 0 -6 104 -55 117 -55 7 0 13 9 13
19 0 13 -16 27 -50 44 -45 22 -52 23 -65 10z"/>
<path d="M7311 6658 c-71 -152 -97 -210 -105 -235 -4 -13 -13 -23 -20 -23 -16
0 -109 115 -148 180 -14 25 -40 58 -57 75 -26 24 -35 27 -49 19 -28 -18 -25
-37 15 -92 21 -28 65 -90 98 -138 33 -47 70 -95 83 -106 23 -22 28 -47 13 -64
-11 -11 -101 -293 -101 -316 0 -9 10 -20 22 -24 24 -7 58 24 58 55 0 28 91
276 145 396 48 107 124 281 135 309 9 24 8 32 -6 47 -10 11 -21 19 -26 19 -5
0 -31 -46 -57 -102z"/>
<path d="M6623 6682 c-19 -12 -65 -150 -129 -387 -9 -33 -31 -107 -50 -165
-38 -121 -58 -215 -49 -230 13 -20 32 -9 48 28 8 20 31 90 52 154 20 64 41
121 48 126 7 5 49 12 95 14 78 4 85 3 98 -17 8 -13 19 -49 25 -81 5 -33 16
-97 24 -143 8 -46 17 -86 20 -90 3 -3 14 0 23 6 14 9 17 24 15 89 -2 44 -7
102 -13 129 -29 152 -51 248 -60 264 -5 10 -21 62 -35 115 -42 156 -75 212
-112 188z m47 -208 c7 -31 20 -81 31 -112 25 -72 17 -82 -67 -82 -34 0 -66 4
-69 10 -8 14 48 213 67 237 16 20 26 6 38 -53z"/>
<path d="M5896 6631 c-59 -21 -89 -54 -81 -90 7 -35 15 -102 21 -181 8 -122
60 -473 80 -542 4 -13 16 -18 44 -18 40 0 156 39 197 66 61 39 164 224 178
319 17 117 -3 254 -48 320 -59 87 -107 117 -214 134 -93 14 -118 13 -177 -8z
m174 -45 c105 -25 135 -51 185 -158 45 -97 29 -264 -38 -394 -50 -97 -118
-154 -201 -170 -53 -9 -53 -7 -91 275 -28 208 -44 404 -34 423 19 35 93 45
179 24z"/>
<path d="M5135 6430 c-3 -5 10 -103 29 -217 19 -115 37 -233 40 -263 3 -30 12
-88 21 -128 8 -40 15 -83 15 -95 0 -33 33 -50 78 -38 20 5 60 14 87 19 108 22
105 21 105 48 0 24 -1 25 -52 18 -29 -4 -63 -11 -76 -15 -34 -13 -82 -11 -86
4 -2 6 -16 91 -30 187 -15 96 -32 200 -37 230 -6 30 -16 96 -23 145 -6 50 -15
96 -19 103 -10 14 -43 16 -52 2z"/>
<path d="M4684 6346 c-3 -7 2 -40 10 -72 8 -33 22 -113 31 -179 21 -162 31
-217 87 -473 14 -67 26 -77 70 -59 18 8 58 20 88 27 64 15 80 25 80 51 0 24
-10 24 -89 -1 -36 -12 -70 -19 -77 -16 -16 6 -51 163 -74 331 -6 44 -15 103
-20 130 -27 140 -53 261 -57 268 -7 12 -43 8 -49 -7z"/>
<path d="M4301 6267 c-27 -69 -36 -119 -75 -417 -44 -331 -51 -416 -37 -434
10 -11 18 -13 31 -6 15 8 19 30 25 140 5 98 11 135 24 150 17 21 146 70 184
70 19 0 28 -11 49 -67 15 -38 30 -81 34 -96 10 -41 52 -127 63 -127 5 0 14 6
20 14 10 12 4 43 -29 148 -58 186 -98 302 -179 518 -35 91 -56 125 -79 128
-16 3 -25 -3 -31 -21z m83 -209 c46 -120 70 -208 60 -218 -18 -15 -146 -60
-156 -54 -6 4 -7 27 -3 62 4 30 8 73 10 96 7 105 31 204 51 206 1 0 18 -42 38
-92z"/>
<path d="M2383 6228 c-14 -23 -45 -112 -53 -153 -4 -22 -14 -58 -22 -80 -9
-22 -21 -67 -27 -100 -7 -33 -16 -73 -21 -90 -5 -16 -14 -59 -20 -95 -6 -36
-17 -92 -25 -124 -13 -58 -8 -96 14 -96 21 0 29 25 61 190 18 100 34 169 53
240 38 142 46 170 52 181 14 21 34 -28 45 -112 7 -46 18 -111 26 -144 7 -33
16 -80 19 -105 3 -25 10 -67 15 -95 6 -27 17 -86 26 -130 16 -85 26 -105 54
-105 20 0 50 74 76 186 9 38 22 86 30 107 8 20 14 49 14 64 0 14 4 42 10 62 5
20 17 65 25 101 9 36 21 81 27 100 6 19 11 60 12 90 1 48 -1 55 -19 55 -20 0
-27 -21 -64 -190 -5 -22 -17 -69 -26 -105 -8 -36 -25 -103 -36 -150 -11 -47
-23 -98 -27 -113 -4 -16 -11 -29 -17 -29 -14 0 -23 42 -59 262 -43 265 -53
303 -93 358 -26 35 -37 39 -50 20z"/>
<path d="M3496 6170 c-32 -10 -63 -23 -68 -28 -5 -5 -5 -162 2 -398 9 -321 13
-391 25 -404 12 -11 19 -12 33 -4 15 10 17 30 17 165 l0 154 60 7 c155 17 250
137 250 313 0 130 -63 196 -200 209 -44 4 -76 0 -119 -14z m183 -59 c50 -26
66 -66 66 -161 -1 -57 -6 -85 -22 -115 -50 -94 -155 -150 -209 -111 -16 12
-20 32 -25 113 -13 191 -11 264 9 279 27 21 136 18 181 -5z"/>
<path d="M3052 6138 c-15 -19 -77 -155 -105 -228 -13 -36 -41 -110 -61 -165
-21 -55 -55 -145 -77 -201 -21 -55 -39 -106 -39 -113 0 -6 -5 -20 -12 -30 -12
-20 -5 -51 12 -51 16 0 47 56 93 173 23 59 49 109 57 112 8 2 58 7 111 10 74
4 99 2 108 -9 6 -7 14 -64 17 -127 6 -123 15 -159 39 -159 36 0 39 43 21 238
-18 199 -31 295 -46 352 -5 19 -16 64 -24 99 -21 86 -65 133 -94 99z m44 -161
c15 -43 34 -171 34 -227 l0 -39 -52 -4 c-128 -12 -142 -7 -126 51 5 20 18 53
27 72 10 19 26 60 35 90 21 66 43 103 58 98 6 -2 17 -21 24 -41z"/>
<path d="M6757 5693 c-14 -14 -6 -23 40 -43 73 -32 84 -1 11 33 -41 19 -42 19
-51 10z"/>
<path d="M3221 4686 c-13 -16 -1 -28 62 -61 23 -13 60 -32 82 -44 45 -24 65
-27 65 -8 0 7 -37 35 -82 63 -104 62 -114 66 -127 50z"/>
<path d="M3077 4643 c-4 -3 -7 -10 -7 -14 0 -24 250 -159 295 -159 44 0 27 19
-57 61 -45 23 -110 59 -144 80 -62 39 -75 44 -87 32z"/>
<path d="M2952 4573 c2 -10 30 -28 70 -44 101 -41 108 -43 108 -24 0 10 -27
29 -72 50 -81 39 -111 44 -106 18z"/>
<path d="M6037 4653 c-4 -3 -8 -94 -8 -202 -2 -262 -11 -424 -25 -428 -10 -3
-94 155 -94 177 0 5 -16 42 -36 82 -19 40 -49 105 -65 143 -46 106 -86 165
-115 165 l-24 0 6 -367 c3 -201 7 -370 10 -375 9 -15 43 -8 48 10 3 9 2 141
-2 292 -8 287 -4 327 30 252 9 -20 31 -71 48 -112 82 -189 187 -408 208 -432
8 -10 23 -18 32 -18 15 0 18 17 23 128 16 319 20 648 8 670 -11 22 -31 28 -44
15z"/>
<path d="M6500 4639 c-61 -25 -88 -67 -119 -188 -24 -95 -26 -167 -10 -309 12
-116 41 -195 79 -222 75 -53 187 -28 234 53 21 36 28 63 33 131 l6 86 -50 0
c-92 0 -175 -12 -180 -27 -9 -23 4 -27 80 -26 99 2 102 -1 83 -72 -28 -110
-110 -153 -173 -92 -39 36 -54 94 -62 225 -11 194 22 334 88 381 32 23 41 23
114 5 39 -9 36 21 -5 46 -36 21 -78 25 -118 9z"/>
<path d="M6216 4622 c-13 -21 -22 -714 -9 -734 7 -13 43 -9 43 5 -1 97 12 692
15 697 3 5 2 15 -1 24 -6 17 -39 22 -48 8z"/>
<path d="M6872 4598 c-7 -7 -12 -30 -12 -52 0 -23 -5 -70 -10 -106 -5 -36 -14
-123 -20 -195 -6 -71 -14 -175 -19 -229 -9 -113 -6 -136 20 -136 27 0 30 11
40 138 14 179 6 166 97 157 42 -4 80 -10 84 -14 4 -3 0 -51 -8 -106 -19 -128
-16 -169 12 -173 17 -2 24 5 33 29 6 17 9 35 6 39 -4 7 6 84 25 190 5 30 17
100 25 155 9 55 25 131 36 168 11 38 18 76 15 84 -9 22 -49 11 -63 -18 -12
-25 -34 -128 -50 -239 l-8 -55 -80 3 c-44 2 -86 8 -93 14 -13 11 -10 107 9
238 5 36 9 73 9 82 0 23 -33 41 -48 26z"/>
<path d="M5263 4525 c-3 -9 -2 -30 2 -48 4 -18 10 -86 15 -152 17 -255 21
-291 30 -335 5 -25 12 -76 15 -113 8 -85 23 -97 115 -94 59 2 65 4 68 25 3 20
-1 22 -41 22 -28 0 -53 7 -66 18 -23 18 -23 13 -56 342 -30 302 -34 333 -47
342 -19 12 -28 10 -35 -7z"/>
<path d="M7261 4526 c-7 -8 -11 -23 -9 -33 3 -15 18 -20 83 -26 44 -5 83 -12
87 -15 4 -4 0 -32 -8 -62 -9 -30 -19 -82 -24 -115 -12 -78 -25 -146 -43 -220
-32 -126 -58 -266 -52 -275 9 -14 41 -12 52 3 12 14 45 145 57 222 2 17 13 71
25 120 11 50 28 131 37 180 9 50 21 103 27 119 10 28 12 28 65 22 62 -7 88 5
72 34 -12 22 -95 39 -225 44 -55 2 -107 7 -116 11 -9 3 -21 -1 -28 -9z"/>
<path d="M4924 4388 c10 -198 26 -403 36 -453 5 -27 12 -69 16 -92 4 -24 12
-47 19 -53 17 -14 120 -24 140 -13 16 9 16 11 0 26 -9 10 -34 20 -56 23 -22 4
-44 14 -49 23 -9 18 -21 122 -41 361 -25 297 -22 275 -47 278 l-23 4 5 -104z"/>
<path d="M4607 4416 c-15 -15 -38 -106 -57 -220 -5 -32 -14 -73 -20 -90 -13
-41 -39 -208 -50 -326 -5 -52 -12 -103 -15 -113 -10 -24 13 -51 31 -36 8 6 14
20 14 31 0 11 4 27 9 36 5 10 11 49 14 89 3 39 9 79 15 89 11 20 172 58 205
48 20 -6 38 -45 57 -126 12 -54 30 -75 51 -62 12 7 12 60 -1 98 -5 17 -23 76
-40 131 -62 201 -72 230 -81 247 -5 10 -9 25 -9 33 0 21 -69 151 -90 170 -16
14 -19 14 -33 1z m56 -143 c31 -77 49 -130 68 -202 22 -86 16 -101 -40 -101
-20 0 -52 -4 -72 -9 -65 -15 -66 -11 -30 178 22 112 37 171 46 171 6 0 19 -17
28 -37z"/>
<path d="M3995 4324 c-16 -17 -17 -34 -12 -189 3 -93 13 -201 21 -238 8 -38
18 -98 21 -135 10 -113 29 -186 48 -190 27 -5 31 24 18 112 -25 164 -24 155
-4 162 72 24 113 65 149 149 26 62 25 219 -2 265 -25 44 -74 67 -156 75 -55 5
-68 4 -83 -11z m162 -61 c12 -8 29 -33 38 -56 22 -59 7 -173 -30 -228 -31 -47
-83 -83 -101 -68 -14 12 -23 77 -30 233 -6 108 -5 121 12 133 21 15 77 8 111
-14z"/>
<path d="M3032 4208 c-21 -107 -58 -414 -66 -550 -7 -107 2 -128 52 -128 15 0
50 -3 77 -6 37 -4 55 -2 70 10 20 16 20 16 1 31 -12 9 -41 15 -72 15 -76 0
-81 8 -72 121 4 52 9 117 12 144 3 28 11 100 17 160 6 61 17 138 25 172 15 67
11 93 -15 93 -13 0 -20 -15 -29 -62z"/>
<path d="M3718 4256 c-78 -18 -83 -29 -83 -164 0 -169 6 -275 21 -377 7 -49
14 -110 16 -135 l3 -45 75 3 c85 3 136 16 144 37 8 23 -10 27 -82 21 -37 -4
-72 -3 -78 1 -19 14 -49 301 -33 318 3 2 34 8 69 12 56 7 65 11 65 28 0 18 -7
20 -68 21 -37 1 -70 3 -72 6 -2 2 -7 40 -10 83 -9 121 4 136 131 149 59 5 81
21 62 43 -13 16 -94 15 -160 -1z"/>
<path d="M3410 4237 c-90 -20 -90 -19 -96 -384 -5 -268 -3 -310 10 -327 14
-17 28 -19 103 -18 71 2 91 6 107 21 36 37 16 49 -73 45 -53 -3 -82 -1 -87 7
-13 22 -17 255 -4 293 11 35 13 36 60 36 37 0 52 4 59 18 17 31 -2 45 -52 40
-26 -3 -50 -1 -56 5 -6 6 -11 48 -11 92 0 101 10 112 103 123 75 9 86 16 71
40 -14 21 -61 24 -134 9z"/>
<path d="M7070 3530 c-17 -10 -7 -35 22 -54 34 -21 62 -24 66 -5 4 21 -70 70
-88 59z"/>
<path d="M7177 3533 c-14 -13 -6 -24 29 -39 46 -19 67 -5 39 26 -18 19 -55 27
-68 13z"/>
<path d="M6193 3283 c-23 -8 -14 -30 17 -43 33 -14 46 -9 37 14 -7 18 -38 35
-54 29z"/>
<path d="M5990 3217 c0 -21 22 -37 52 -37 35 0 36 13 3 34 -29 19 -55 21 -55
3z"/>
<path d="M5795 3200 c-9 -14 1 -27 37 -44 60 -31 78 -13 31 29 -29 26 -58 32
-68 15z"/>
<path d="M5520 3138 c0 -11 183 -108 203 -108 21 0 2 32 -30 52 -93 57 -173
83 -173 56z"/>
<path d="M5411 3040 c-20 -12 -5 -28 52 -55 109 -53 102 -8 -9 48 -17 9 -36
12 -43 7z"/>
<path d="M4217 3013 c-16 -15 -4 -33 51 -74 31 -24 89 -71 127 -104 82 -71
172 -139 198 -148 63 -23 -60 96 -272 266 -86 68 -93 72 -104 60z"/>
<path d="M4083 2893 c-37 -14 -15 -32 287 -229 117 -76 183 -101 155 -59 -9
13 -421 296 -428 294 -1 0 -8 -3 -14 -6z"/>
<path d="M3939 2804 c-12 -14 -9 -20 21 -46 105 -88 372 -250 398 -241 21 8
14 20 -25 44 -111 68 -237 154 -298 203 -37 31 -71 56 -75 56 -4 0 -14 -7 -21
-16z"/>
<path d="M3772 2728 c-7 -7 -12 -15 -12 -19 0 -5 33 -32 73 -62 176 -131 267
-178 267 -137 0 5 -35 33 -77 61 -43 29 -112 79 -154 111 -42 32 -78 58 -80
58 -3 0 -10 -5 -17 -12z"/>
<path d="M3567 2643 c-19 -18 2 -44 86 -104 103 -73 153 -97 168 -82 11 11
-15 35 -143 131 -83 61 -98 69 -111 55z"/>
<path d="M3403 2543 c-7 -17 2 -25 76 -70 72 -45 121 -65 138 -58 16 6 13 11
-17 36 -19 16 -38 29 -42 29 -5 0 -31 18 -59 40 -54 43 -86 50 -96 23z"/>
<path d="M3283 2464 c-3 -9 2 -23 13 -34 23 -21 114 -70 131 -70 30 0 9 33
-41 65 -30 19 -57 39 -61 45 -10 15 -35 12 -42 -6z"/>
<path d="M3152 2438 c-7 -7 -12 -15 -12 -20 0 -14 121 -90 136 -84 20 8 8 27
-41 66 -56 45 -70 51 -83 38z"/>
<path d="M3030 2395 c-15 -17 -7 -31 28 -49 49 -25 69 -28 76 -11 4 10 -8 25
-36 45 -47 34 -51 35 -68 15z"/>
<path d="M2930 2346 c0 -15 46 -56 62 -56 22 0 20 33 -3 51 -29 22 -59 25 -59
5z"/>
<path d="M5438 2381 c-31 -3 -60 -10 -65 -14 -4 -5 -8 -154 -8 -332 0 -393
-11 -365 139 -365 83 0 105 4 126 19 20 16 22 21 11 35 -11 13 -34 16 -107 16
-51 0 -95 4 -98 8 -2 4 -8 68 -12 141 -8 151 -8 151 68 151 56 0 98 14 98 34
0 20 -51 38 -102 36 -23 -1 -49 -1 -55 -1 -9 1 -13 26 -13 90 0 121 8 129 119
135 89 4 113 15 91 41 -13 16 -79 18 -192 6z"/>
<path d="M5217 2373 c-4 -3 -7 -129 -7 -280 0 -156 -4 -273 -9 -273 -10 0
-106 191 -116 233 -4 15 -10 29 -14 31 -3 2 -29 47 -56 100 -65 126 -88 155
-112 140 -16 -10 -19 -34 -25 -240 -11 -318 -5 -491 15 -511 12 -12 19 -13 29
-5 10 8 13 74 12 302 0 160 3 293 7 295 8 6 49 -42 49 -56 0 -5 14 -38 30 -72
17 -35 30 -67 30 -71 0 -13 150 -310 163 -324 10 -10 16 -10 30 0 14 11 18 35
22 138 10 257 8 555 -4 578 -12 22 -31 28 -44 15z"/>
<path d="M6066 2348 c-8 -13 -22 -57 -31 -98 -22 -93 -86 -306 -110 -365 -38
-94 -37 -92 -45 -70 -8 20 -45 246 -56 345 -11 93 -32 183 -45 191 -34 20 -55
-21 -40 -78 10 -41 40 -242 66 -448 9 -71 21 -140 26 -153 15 -37 50 -25 74
24 11 23 25 48 31 55 18 22 86 216 140 399 14 47 29 99 35 116 12 42 11 78 -3
92 -17 17 -26 15 -42 -10z"/>
<path d="M6668 2352 c-34 -4 -28 24 -88 -382 -11 -69 -24 -156 -30 -195 -18
-112 -19 -126 -13 -141 6 -17 52 -19 58 -1 8 20 45 277 45 308 0 28 2 29 48
29 82 0 84 -6 77 -217 -6 -164 -5 -181 12 -202 l18 -23 19 21 c17 19 19 41 21
223 l2 201 40 29 c50 34 83 98 83 159 0 34 -7 55 -31 87 -28 39 -40 47 -114
85 -32 16 -101 25 -147 19z m125 -83 c69 -35 97 -67 97 -112 0 -50 -12 -70
-56 -96 -39 -23 -146 -33 -165 -14 -9 9 10 171 27 226 7 23 45 22 97 -4z"/>
<path d="M4607 2286 c-12 -12 -24 -78 -43 -233 -3 -29 -10 -55 -15 -59 -5 -3
-52 31 -105 75 -96 81 -126 95 -138 65 -12 -31 -5 -42 62 -92 37 -27 89 -69
115 -92 l48 -43 -4 -81 c-3 -45 -7 -97 -10 -116 -35 -213 -33 -245 16 -223 26
12 25 7 45 208 4 39 10 75 14 80 3 6 11 66 17 135 7 69 20 179 31 245 14 86
16 123 8 132 -13 17 -23 16 -41 -1z"/>
<path d="M6210 2263 c-16 -27 -28 -78 -42 -168 -10 -71 -26 -175 -34 -230 -27
-169 -27 -180 -10 -194 18 -15 236 -47 260 -38 19 8 21 40 4 55 -7 5 -52 13
-100 17 -53 4 -91 12 -98 20 -8 10 -7 39 5 112 28 171 17 153 88 146 50 -4 65
-2 76 11 18 22 -2 46 -39 46 -15 0 -42 5 -59 11 -33 12 -33 12 -28 68 7 70 23
108 51 118 12 3 55 7 96 8 93 3 90 2 90 20 0 26 -37 35 -138 35 l-100 0 -22
-37z"/>
<path d="M4105 2169 c-33 -5 -85 -14 -116 -19 -30 -6 -71 -10 -91 -10 -40 0
-74 -30 -64 -56 6 -15 17 -16 89 -10 45 4 92 9 104 12 15 4 23 0 28 -15 6 -21
22 -130 31 -211 18 -182 25 -262 26 -305 1 -79 36 -129 66 -92 9 10 -14 332
-32 447 -2 14 -5 63 -7 110 l-4 85 52 5 c62 6 94 30 73 54 -14 18 -58 19 -155
5z"/>
<path d="M2814 2086 c-13 -9 -25 -35 -32 -68 -12 -54 -15 -75 -32 -213 -5 -44
-14 -114 -21 -155 -6 -41 -12 -120 -13 -175 l-1 -100 30 0 30 0 10 135 10 135
35 3 c75 6 148 49 208 122 32 40 42 64 51 114 10 59 9 68 -9 99 -21 35 -75 79
-120 95 -52 20 -124 24 -146 8z m152 -81 c47 -27 59 -63 48 -133 -10 -66 -112
-152 -180 -152 -28 0 -28 4 -13 105 12 79 16 112 18 154 3 65 45 73 127 26z"/>
<path d="M3560 2072 l-45 -18 1 -69 c0 -39 6 -119 13 -180 6 -60 15 -177 21
-260 5 -82 12 -160 16 -172 8 -28 40 -39 61 -22 17 14 15 71 -7 214 -22 150
-24 139 20 153 67 21 64 23 103 -68 9 -19 23 -55 32 -80 10 -25 23 -59 31 -77
8 -17 17 -45 20 -62 8 -36 37 -66 59 -58 16 7 22 75 7 93 -4 5 -16 34 -26 64
-11 30 -29 78 -41 105 -42 98 -50 134 -35 158 57 89 62 132 25 200 -44 78
-163 116 -255 79z m171 -78 c28 -25 39 -81 24 -117 -17 -40 -39 -60 -89 -81
-60 -25 -62 -23 -70 52 -3 37 -9 88 -12 114 -6 39 -4 47 12 51 31 9 118 -3
135 -19z"/>
<path d="M3273 2023 c-11 -16 -32 -57 -47 -93 -16 -36 -55 -120 -87 -187 -32
-67 -59 -124 -59 -128 0 -3 -11 -31 -25 -61 -14 -30 -25 -58 -25 -62 0 -5 -12
-32 -26 -61 -26 -55 -26 -77 1 -87 22 -9 40 10 60 64 42 116 59 158 72 173 17
20 145 34 172 19 19 -9 30 -74 37 -215 1 -27 3 -53 3 -57 2 -14 38 -9 51 6 9
11 9 50 0 168 -14 205 -26 321 -40 393 -7 33 -14 74 -17 90 -5 30 -29 65 -44
65 -4 0 -16 -12 -26 -27z m33 -200 c4 -38 8 -86 8 -108 l1 -40 -60 -6 c-33 -3
-64 -2 -70 3 -6 6 1 31 21 71 17 34 39 81 49 105 26 62 42 54 51 -25z"/>
<path d="M6937 1582 c-37 -41 -8 -93 40 -76 32 11 51 57 33 79 -17 21 -54 19
-73 -3z"/>
<path d="M7340 1785 c-16 -19 -4 -35 86 -116 81 -73 81 -73 217 -179 56 -44
125 -98 153 -120 47 -37 94 -52 94 -31 0 14 -147 144 -259 229 -67 50 -159
131 -218 190 -47 46 -55 49 -73 27z"/>
<path d="M7653 1724 c-8 -21 64 -93 190 -192 55 -42 131 -103 170 -135 40 -32
80 -65 90 -73 20 -16 43 -18 51 -5 9 14 -178 187 -304 281 -19 14 -48 37 -64
50 -15 14 -45 40 -66 58 -42 36 -58 40 -67 16z"/>
<path d="M7270 1561 c0 -10 10 -25 23 -34 12 -8 31 -23 42 -33 11 -11 38 -32
60 -48 22 -17 106 -85 187 -152 179 -149 195 -161 211 -145 8 8 -3 24 -44 63
-132 126 -190 177 -264 233 -44 33 -82 62 -85 65 -3 3 -24 20 -47 38 -47 36
-83 42 -83 13z"/>
<path d="M8086 1501 c-16 -18 -15 -20 27 -60 24 -23 54 -49 68 -58 13 -9 49
-39 80 -65 30 -26 63 -48 72 -48 37 0 27 25 -34 84 -73 70 -183 166 -191 166
-3 0 -13 -8 -22 -19z"/>
<path d="M7247 1399 c-27 -16 -14 -31 103 -119 19 -14 57 -44 86 -67 29 -24
56 -43 59 -43 4 0 37 -25 74 -55 207 -171 411 -325 431 -325 6 0 10 -5 10 -11
0 -6 10 -9 23 -7 12 2 22 10 22 18 0 12 -83 82 -215 180 -18 14 -101 79 -184
145 -150 120 -381 295 -387 295 -2 0 -12 -5 -22 -11z"/>
<path d="M7167 1273 c-18 -18 0 -43 69 -93 42 -30 83 -59 92 -65 9 -5 22 -16
30 -23 8 -7 28 -20 45 -29 18 -9 57 -33 88 -54 107 -72 238 -141 256 -135 23
9 2 34 -65 77 -155 97 -330 214 -372 248 -96 77 -126 92 -143 74z"/>
<path d="M6611 1177 c-14 -17 0 -30 91 -85 86 -52 134 -70 149 -55 13 13 -36
52 -138 111 -79 46 -85 48 -102 29z"/>
<path d="M7077 1153 c-27 -26 29 -76 193 -173 53 -31 100 -39 100 -17 0 10
-267 197 -282 197 -3 0 -8 -3 -11 -7z"/>
<path d="M6857 1133 c-17 -16 -3 -33 50 -65 32 -18 78 -45 103 -60 49 -30 80
-35 80 -15 0 23 -23 42 -113 95 -85 51 -107 59 -120 45z"/>
<path d="M6517 1093 c-14 -13 -6 -39 16 -52 43 -28 96 -51 117 -51 31 0 24 29
-11 48 -17 9 -47 27 -66 40 -36 23 -46 26 -56 15z"/>
<path d="M5557 1203 c-16 -16 -3 -33 63 -83 67 -49 100 -58 100 -27 0 16 -40
54 -95 91 -40 27 -57 31 -68 19z"/>
<path d="M5414 1165 c-7 -19 9 -40 45 -58 14 -8 43 -24 65 -36 48 -28 78 -21
50 11 -30 33 -122 98 -139 98 -9 0 -18 -7 -21 -15z"/>
<path d="M5202 1158 c-9 -9 -8 -16 5 -30 9 -10 19 -18 24 -18 4 0 39 -18 78
-40 40 -23 76 -38 81 -35 28 17 -7 53 -104 108 -55 30 -67 32 -84 15z"/>
<path d="M5045 1130 c-10 -17 15 -41 64 -62 82 -35 101 6 21 47 -53 27 -75 31
-85 15z"/>
</g>
</svg>
