<svg version="1" xmlns="http://www.w3.org/2000/svg" width="449" height="463" viewBox="0 0 898.000000 926.000000"><path d="M515 26.6c-5.7 1.8-17.7 5.1-25.4 7-7.8 1.9-17.6 5.2-19 6.3-.6.5-6.9 3.3-14.1 6.1-28.3 11.4-49.2 24.2-69.5 42.8-10.8 9.8-24.9 30.6-32.8 48.2-4.9 10.8-5.9 14-9.7 28.5-4.9 19.2-5.1 20.7-8.2 64.3-.3 4.5-.9 8.5-1.3 8.7-.5.3-4.9-.8-10-2.5-5-1.6-14.2-4.4-20.3-6-13.7-3.8-18.6-5.3-25.7-7.8-3-1.1-7.5-2.5-10-3.2-2.5-.7-6.5-2-9-2.8-2.5-.8-6.1-1.8-8-2.3-1.9-.4-6.9-1.7-11-2.9-6.7-1.8-16.6-3.1-34.5-4.6-9.9-.8-65.7-.4-67.4.5-.9.5-4.5 1.1-8.1 1.5-11.6 1.2-18.3 2.3-26.5 4.6-4.4 1.2-9 2.4-10.3 2.7-1.2.3-2.5.9-2.8 1.4-.3.5-1.3.9-2.3.9-.9 0-3.6.9-5.9 2-2.2 1.1-4.7 2-5.4 2-1.7 0-8.6 2.4-9.4 3.3-.4.4-1.7.7-2.9.7s-4.8 1.3-8 3c-3.2 1.6-6.6 3-7.5 3-.9 0-2 .4-2.5.9-.6.5-3.5 2.3-6.5 3.9s-7.3 3.9-9.5 5.2c-4.2 2.4-13 7.3-17.8 9.7-2.2 1.2-2.7 2.1-2.5 4.2.3 2.9.5 2.9 17.3 5.1 21.8 2.8 28.9 4 40.5 7 11.1 2.9 12.3 3.5 8.7 4.9-1.6.6-3.2 1.1-3.7 1.1-.4 0-2.5.9-4.7 1.9-2.1 1.1-7.6 3.8-12.3 6-8.7 4.1-16.7 10-30.3 22.3-6.5 5.8-7.8 7.5-7.5 9.7.3 2.6.4 2.6 7.8 2.4 8.9-.1 30.3-2 38-3.3 10.2-1.6 32.4-3.9 43-4.4 5.8-.3 15.8-.8 22.2-1.2 7.4-.4 13.9-.3 17.5.4 3.2.6 11.7 1.6 18.8 2.2 14.6 1.3 31.4 4.5 33.2 6.3 1.1 1.2.1 9.4-2.7 22.2-1.6 7.4-2.8 17.2-4.1 34.4l-1.2 15.4 2.8 2.3c2.1 1.7 4.2 2.3 7.6 2.2 2.6 0 5.3.3 6 .7.6.4 2.7 1.2 4.5 1.6 1.9.5 4.9 1.3 6.7 1.8 1.7.5 7.7 2.1 13.2 3.5 5.5 1.4 11.6 3 13.5 3.5 1.9.5 6.1 1.5 9.4 2.2 3.2.7 6 1.8 6.2 2.3.2.6-2.3 7.2-5.7 14.6-3.3 7.4-6.7 15.1-7.6 17-.8 1.9-1.9 4.2-2.4 5-1.3 2.1-2.4 4.5-5.1 11.4l-2.3 5.8-5-.5c-2.8-.3-5.8-.1-6.7.4-2 1.1-5.1 9.2-7.6 19.9-4.5 19.1-6.3 27.9-7.2 35.1-.5 4.2-1.4 10.5-2 14.2-1.5 9.6-1.5 31.9.1 34.8 1.7 3.3 3.9 4.8 7.1 4.9 2 0 2.9.6 3.2 2.3.5 2.3.6 3.2 3.1 30.1.9 9.3 1.8 17.3 2.1 17.8.4.5 1.4 4.2 2.4 8.2 1 4 2.5 9 3.5 11.2.9 2.1 2.1 4.8 2.5 5.9 9.1 22.5 18.9 33.4 34 37.9l4.5 1.4-3 1.2c-9.4 3.7-9.8 4.1-11.1 10.8-2.2 10.6-3.3 24.6-4 48.2-1.2 43.9-.6 55 3 57.3 1.2.8 3.2 1.7 4.6 2 1.4.3 4.3 1.1 6.5 1.7 2.2.6 5.9 1.6 8.3 2.1 2.3.5 6.3 1.4 9 2 15.2 3.4 63.7 4.6 83.7 2.1 7.8-1 43.1-6.3 52.3-7.9 3.1-.5 3.2-.4 3.2 3.2 0 2 .8 4.9 1.8 6.3 3.8 5.5 3.8 5.6-.1 4.9-7.4-1.2-8.7 4.2-2.7 11.5 2.2 2.6 4.3 3.9 7.8 4.7 3.3.8 5.1 1.9 5.7 3.4 2 4.4 6.8 5.6 22.3 5.7 14.2 0 14.4 0 18.5-2.9 2.3-1.6 6.8-5.7 10-9.1 5.4-5.8 5.9-6.2 9-5.5 8.9 2 43.2 3.9 96.4 5.4 21.6.6 45.3 1.7 52.5 2.5 7.3.9 19.2 2 26.3 2.6 13.8 1 24 2.1 45 4.6 27.7 3.3 26.3 3.1 40.8 6.3 7.1 1.6 11.9 2.9 19.7 5.1 4.1 1.2 8.6 2.4 10 2.7 1.4.3 3 .9 3.5 1.3.6.3 3 1.2 5.5 2 2.5.7 4.9 1.7 5.5 2.2.5.4 1.7.8 2.7.8 1 0 2.6.4 3.6.9 7.4 3.7 10.6 5.1 11.8 5.1.8 0 2.2.4 3.2.9.9.5 3.1 1.4 4.7 2.1 1.7.7 3.8 1.6 4.7 2.1 1 .5 2.6.9 3.6.9s2.2.4 2.7.8c.6.4 2.8 1.4 5 2.1 2.2.7 5 1.7 6.2 2.3 4.9 2.4 7.3-2.7 3.2-7-1.1-1.3-2.7-3.8-3.4-5.7-.8-1.8-1.9-3.6-2.5-4-.5-.3-3.4-3.8-6.4-7.8-3-4-7.2-9-9.3-11.2-2-2.2-6.4-7.2-9.8-11-3.3-3.9-9.5-10.5-13.7-14.9-8.1-8.1-9.4-10.2-5.5-8.7 1.2.5 4.2 1.4 6.7 2.1 7.2 1.9 18.3 5.1 20.8 6.1 1.3.5 3.7.9 5.4.9 4.1 0 14.8 2 17 3.1 1 .5 2.9.9 4.2.9 1.4 0 2.8.4 3.1 1 .3.5 1.8 1 3.3 1 1.5 0 5.2.9 8.2 2 6.7 2.5 9.6 2.5 10.9.3 1.2-2.2-.6-5.7-4.9-9.8-1.8-1.7-5.4-5.6-8-8.7-4-4.7-18.6-18.3-26.8-25-3.2-2.6-38.1-25.8-38.7-25.8-.4 0-2.5-1.3-4.8-2.9-5.9-4-11.5-7.1-13-7.1-.7 0-3.2-.9-5.4-2-2.3-1.1-7.2-2.9-10.9-4.1-3.8-1.1-7.8-2.5-8.9-2.9-1.1-.5-3.8-1.4-6-2.1-2.2-.7-4.4-1.7-5-2.1-.5-.4-1.7-.8-2.7-.8-1 0-2.6-.4-3.6-.9-3.1-1.5-8.8-3.1-11.4-3.1-1.5 0-2.8-.6-3.1-1.3-.4-1.1 1.2-9.2 3.2-16.7.6-1.9 1.7-6.8 2.7-10.8 1.9-8.4 1.7-8.9-5.4-12.5-2.6-1.3-5.6-2.8-6.7-3.4-4.3-2.4-20.3-8.7-24.5-9.7-5-1.2-5.3-1.8-3.2-7.7 5.8-16.3 7.6-29.7 8.5-61.9.4-13.1.5-13.4 2.8-14.1 1.3-.4 4.9-1.4 7.9-2.3 3-.9 7.8-2.1 10.5-2.7 2.8-.5 7-1.5 9.5-2 8-1.8 15.3-2.9 22.1-3.5 10.7-1 10.7-1.1 13-21.5 1.1-9.6 2.2-19.2 2.4-21.4 2.4-23.3 5-38.7 9.9-59.5 2.1-8.8 2-13.3-.2-15.3-1-1-2.4-1.7-3-1.7-.7 0-3.1-.8-5.5-1.9-2.3-1-5.8-2.4-7.7-3.1-1.9-.7-4.4-1.6-5.5-2-2.9-1.2-6.3-2-13-3-3.3-.5-8-1.4-10.5-2-2.5-.6-8.3-1.5-13-2-4.7-.4-10.7-1.3-13.5-1.9-2.7-.5-6.6-1.2-8.6-1.4-5.2-.6-5.9-1.3-5.9-5.8 0-2.2-.7-5.5-1.5-7.5-1.7-4.2-1.4-5.3 2.9-8.2 6.4-4.4 13.9-12.8 21.5-24.2 7-10.4 8.2-11.7 13.2-14.1 5.7-2.8 21.5-8.2 33.9-11.8 4.1-1.2 8.9-2.6 10.6-3.1 1.7-.6 4.6-1 6.6-1 3.2 0 6.8-2.3 6.8-4.5 0-.4 1.2-3.3 2.6-6.4 4.1-8.9 5.2-11.4 5.7-14.1.9-4.1 3.9-15.4 4.8-17.5 1.3-3.3 2-7.5 3.4-18.1 1-8.6 1.7-10.9 4.4-14.7 1.7-2.5 3.1-5 3.1-5.4 0-.5.8-2.7 1.9-4.9 1-2.1 2.4-6.4 3-9.4.7-3 1.7-6.9 2.2-8.6 1.4-4.7 1.5-22.2.1-23.6-.7-.7-1.2-1.9-1.2-2.7 0-.8-1.8-3.8-4.1-6.7-4.4-5.8-14.7-12.4-19.3-12.4-1.3 0-2.8-.5-3.1-1-.3-.6-1.6-1-2.9-1-1.2 0-2.6-.4-3.1-.9-.6-.5-6.4-1.5-13.1-2.2-9.2-.9-13.1-1-16.7-.1-2.5.7-6 1.2-7.7 1.2-3.2 0-12.1 3.9-15.2 6.7-.9.8-2.6 3.9-3.8 6.9-1.6 3.8-2.9 5.6-4.4 5.9-1.1.2-12.7.7-25.6 1-12.9.4-27.1 1.1-31.5 1.6-4.4.5-10.5 1.1-13.5 1.4-3 .3-7.7.9-10.5 1.5-8 1.5-18.4 2-19.1.9-.3-.5.4-5.8 1.5-11.7 7-36.2 11.1-67.4 11.1-84.5 0-13-3.7-29.9-8.7-39.8-1.3-2.6-2.3-5-2.3-5.4 0-.4-2.8-4.8-6.2-9.8-6.3-9.3-21.4-25.4-28-29.8-1.9-1.3-6.3-4.4-9.7-6.7-3.5-2.4-8.3-5.1-10.9-5.9-2.6-.9-5.1-2-5.6-2.4-.6-.5-2.4-.9-4.2-.9-4.8 0-7.5-5-4.7-8.9 1.6-2.3 1-4.1-1.4-4.1-.8 0-4.1 1.2-7.3 2.6-7 3.1-9.6 2.9-9.2-.6.2-1.4.8-3 1.3-3.6.5-.6.6-1.4.2-1.7-1.7-1.7-6-.2-17.6 6-2.8 1.5-8.1 1.1-9.2-.7-.3-.5 1.2-1.8 3.5-3 4.1-2.1 5.2-4.3 2.4-5.4-.9-.3-1.6-.6-1.7-.5-.1 0-2.2.7-4.7 1.5zm-10 70.6c0 1.6-.3 1.9-1.1 1.1-.6-.6-.8-1.6-.5-2.2 1.1-1.7 1.6-1.3 1.6 1.1zm-48.5 6.8c6.5 1.3 11.4 2.5 20.5 4.9 11.2 2.9 13.6 3.8 17 5.7 2.6 1.6 3.4 1.7 6.3.5 22.2-9 35.3-10.7 60.7-8.1 14.1 1.5 19.6 2.8 28.6 7.1 18.4 8.7 24.9 21.2 25.6 49.1.2 6.9-.1 13-.5 13.5-1.2 1.1-29.1 1.7-28.3.5.6-1 8.1-2.6 18-3.9 3.3-.4 6.1-1.4 6.4-2.1.5-1.6-7-1.6-19-.1-6.7.9-9.2.9-10.1 0-2.1-2.1.7-3 12.6-4.2 8.4-.9 11.7-1.6 11.7-2.6s-2.4-1.3-9.8-1.3c-5.4 0-10.2-.3-10.5-.7-1.6-1.5 1.8-3.3 6.2-3.3s7.1-1.2 7.1-3.3c0-.6-2.5-.7-6.1-.3-4.1.5-6.5.3-7.5-.5-2.3-1.9-1.6-3.9 1.6-4.6 2.2-.4 3-1.1 2.7-2.2-.2-.9-1-1.4-1.8-1.1-2.7.9-14.4.5-14.2-.5.1-.6 2.1-1.5 4.4-2 2.3-.6 4.5-1.7 4.7-2.4.4-1.1-.6-1.3-4.9-.7-3 .3-9.9.8-15.4 1.2-12.5.7-14.5 1.1-14.5 2.9 0 1.2 1.4 1.5 6.6 1.5 6 0 6.5.2 5.3 1.6-.8 1-2.2 1.4-3.8 1.1-3.3-.7-9.3.5-9.8 1.9-.6 1.9 4.2 3.3 8.3 2.3 5.3-1.2 6.6-1.1 6.2.3-.3.8-2.8 1.5-5.9 1.8-3.9.4-5.4.9-5.4 2s1.1 1.5 4.7 1.3c3.4-.1 4.8.3 5.2 1.4.7 1.8-1.2 4.5-2.8 4-1.4-.5-4.6 1.1-4.6 2.3 0 .6 1.3 1 2.9 1 5.8 0 7.8 2.1 4.4 4.5-1.7 1.3-1.7 1.4 0 3.2 2.2 2.5 2.2 5 0 6.1-3.5 1.8-28.1 4.4-30.3 3.2-1.1-.6-4.9-.4-10.6.5-9.7 1.6-28 2-28.8.7-.8-1.3 8.3-3.1 18.9-3.8 9.8-.7 14-1.8 13-3.4-.3-.5-2.4-1-4.6-1-2.4 0-3.8-.4-3.4-1 .3-.6 2.5-1 4.8-1s6.7-.9 9.7-1.9c4.9-1.6 5.5-2.1 5.8-4.9.4-4.1-4.4-7.7-11.5-8.7-5.8-.7-7.6-2.2-4.8-3.7 2.4-1.4-.1-2.9-3.3-2.1-1.8.4-2.4.1-2.9-1.7-.6-2.1-1-2.2-6.7-1.6-3.4.4-10.4.9-15.6 1.3-7.9.5-9.8 1-11.6 2.8-1.2 1.3-3.8 2.5-5.8 2.9-4 .8-7.6 4.6-7.6 8.2 0 1.3 1.3 3.2 3.2 4.7 3.1 2.5 3.1 2.5 1 3.8-1.2.8-2.2 2-2.2 2.8 0 1.1 1.7 1.2 8.8.7 35.5-2.5 48.5-1.3 20.2 1.8-23.5 2.6-35.5 2.9-42.7 1.2-3.5-.9-9.3-2.3-13-3.2-3.8-.8-8.8-2.4-11.3-3.4-2.5-1.1-7.6-2.6-11.5-3.4-16.7-3.4-36.1-7.9-37.9-8.8-1.2-.7-1.5-1.3-.8-2 1.2-1.2 10.4.3 34.2 5.8 8.5 1.9 17.3 3.9 19.5 4.4 5 1.1 7-1 2.5-2.5-4.8-1.6-3-3 3.9-3 7.1-.1 9.6-2 4.1-3.1-2.1-.5-3-1.2-2.8-2.3.4-1.7 1.2-1.7 6.6-.6 2.6.6 3.2.4 3.2-.9 0-.9-.8-1.6-1.8-1.6-2.4 0-6.4-2.9-5.6-4.2.4-.5 2.1-.7 3.9-.4 1.9.4 3.6.2 4-.3.7-1.2-2.6-3.1-5.4-3.1-2.4 0-5.4-2.8-4.5-4.2.3-.5 1.7-.7 2.9-.4 3.2.8 4.2-1.2 1.3-2.3-5.7-2.1-10.1-3.2-19-4.5-5.3-.8-11.2-1.8-13.2-2.1-2.9-.6-3.6-.4-3.6.9 0 .9 1.1 1.8 2.8 2.1 7 1.5 8.7 2.2 8.7 3.5 0 1.6-1.1 1.7-10 .9-4.5-.4-5-.2-5 1.6 0 1.7-.6 2-4.3 1.7-3.2-.2-4.2.1-4.2 1.3 0 .8 1.2 1.7 2.8 2.1 1.5.3 4 1 5.6 1.5 1.6.5 3.9.9 5.1.9 2.8 0 5.2 2.7 3.8 4.1-.6.6-1.9.7-3.4.1-1.3-.6-6.5-1.8-11.6-2.7-8.8-1.7-12.6-1.4-10.5.7 1.4 1.4 16.8 4.7 21.8 4.8 4.1 0 7.2 2 6 3.8-.3.5-4.8-.1-10.3-1.4-5.4-1.3-11-2.4-12.5-2.4-3.5 0-11.9-1.8-13.7-2.9-2.1-1.4-1.6-6 1.9-16.3 7.3-21.6 18.1-32.9 34.8-36.3 7.5-1.6 32.1-1.3 40.7.5zm-24.3 43.7c4.2 3.8.4 11.3-5.8 11.3-5.4 0-7.2-5.5-3.3-10.4 2.4-3 6.3-3.4 9.1-.9zm137.2-.8c.8 1.2-2 2.2-4 1.4-1.3-.5-1.3-.7-.2-1.4 1.7-1.1 3.5-1.1 4.2 0zM415 148c0 .5-.4 1-.9 1-.6 0-1.3-.5-1.6-1-.3-.6.1-1 .9-1 .9 0 1.6.4 1.6 1zm163.2 8.1c2.5 3.3 1.8 6.1-2.3 9-5.5 3.9-10.2.2-8.5-6.6.6-2.5 5-5.6 7.5-5.2.8.1 2.3 1.4 3.3 2.8zm-80.7.9c.4.6-.7 1-2.5 1s-2.9-.4-2.5-1c.3-.6 1.5-1 2.5-1s2.2.4 2.5 1zm-89.2 16.5c5.8 1.7 7.6 3.5 3.5 3.5-4.4 0-14-2.8-15.7-4.5-1.5-1.6-1.4-1.7 2.4-1.2 2.2.2 6.6 1.2 9.8 2.2zm-21.8 1.5c1.7.5 5.3 1.6 8 2.5 6.6 1.9 24 3.2 24.9 1.7.5-.8 1.9-.6 4.9.4 6.1 2.2 17.5 4.8 34.3 8 1.1.2 3.3 1.5 4.9 3 2.7 2.5 3 2.6 12.4 2 5.3-.4 11-.3 12.6.2l3 .9-2.5 1.3c-1.4.8-6.6 1.6-12.2 1.8-8 .4-9.8.7-9.8 2s1.7 1.4 13.5.8c7.4-.3 15.9-1.1 18.7-1.7 2.9-.6 9.4-1.4 14.3-1.8 5.1-.4 10.6-1.5 12.5-2.4 3.5-1.8 9-2.8 27-4.8 5.8-.6 12.4-1.5 14.6-1.9 2.4-.4 5-.3 6 .3 1.8 1 31.5.4 34.6-.8.9-.4 1.9-1.7 2.2-3.1.7-2.6 3.3-3.3 4.2-1 .3.7.1 2.9-.3 4.7l-.9 3.4-12 1c-12.1 1-15.5 2.6-7.4 3.5 3.7.4 4.5.9 5 3 .5 2.2 1.1 2.5 5.6 2.5 4.6 0 4.9.2 5.2 2.7.3 2.2-1 4-6.5 9.5-5.8 5.9-8.1 7.4-15.8 10.5-8.1 3.3-21.1 6.7-30.5 8.2-1.9.2-7.3 1.2-12 2-12.1 2.2-19.7 2.6-53.5 3.2-28.8.5-37 0-51.5-2.7-10.4-2-23.5-5.1-24.5-5.9-.5-.4-2.8-1.3-4.9-2-10.7-3.4-27.3-17.5-31.7-26.9-2.8-5.9-2.2-6.9 3.9-6.3 4.3.4 5.2.2 6.1-1.7.9-1.5 2.1-2.1 4.6-2.1 5.8 0 3.9-1.5-4.2-3.4-11.5-2.6-12.6-3-13.1-4.5-.4-1.1.3-1.3 3.4-.7 6.3 1.3 14.6 2.7 19.2 3.3 3.9.5 4.3.3 4-1.3-.2-1.4-1.3-2-3.8-2.1-4.3-.4-17.7-3.1-20.7-4.4-1.3-.4-2.3-1.4-2.3-2 0-1.2 4.5-.7 10.5 1.1zm194.3 2.7c-2.1.2-5.7.2-8 0-2.4-.2-.7-.4 3.7-.4s6.3.2 4.3.4zm10.5 5.2c.8.8-.4 1.1-3.8 1.2-2.8 0-6.9.2-9.2.5-3.3.4-4.3.2-4.3-1 0-.8.4-1.6 1-1.8 2.3-.7 15.4.2 16.3 1.1zm8.2.1c-.3.5-1.5 1-2.6 1-1 0-1.9-.5-1.9-1 0-.6 1.2-1 2.6-1 1.4 0 2.3.4 1.9 1zM379 188c0 .5-.4 1-.9 1-.6 0-1.3-.5-1.6-1-.3-.6.1-1 .9-1 .9 0 1.6.4 1.6 1zm4.6 1.8c-2.2.5-3-.3-2.1-1.8.5-.8 1.1-.7 2.2.2 1.5 1.2 1.4 1.3-.1 1.6zm227.9 5.1c.8 1.4-.9 2.1-3.5 1.4-2.2-.6-2.3-.7-.4-1.4 2.6-1 3.2-1 3.9 0zM194 212c5.8.5 16.6 1.4 24 2 13 1.1 22 2.8 36 6.9 3.6 1 10.7 3 15.8 4.5 5.1 1.4 11.6 3.5 14.5 4.6 2.8 1 11.6 3.5 19.3 5.4 23.4 5.8 28.8 7.5 30.2 9.3 1 1.4 1.2 4 .7 10.3-.7 9.6-1.5 10.6-7.9 11.4-2.2.3-8.1 1.1-13.1 1.7-9.5 1.2-26.4.7-39.5-1.3-12.7-1.8-14.7-2.5-15.4-5.3-.3-1.3-2.1-3.5-3.9-4.8-1.7-1.3-7.6-5.7-13.1-9.8-9.2-6.9-11.6-8.7-17.7-13.1-1.3-1-6.4-4.7-11.3-8.3-4.9-3.6-9.5-6.5-10.2-6.5-3.1 0-1.3 4 3.1 7 2.5 1.7 9.3 6.7 15 11.1 5.8 4.3 10.7 7.9 11 7.9.3 0 1.8 1.1 3.3 2.4 3.1 2.8 8.4 6.5 12.4 8.5 3.6 1.9 9.4 6.8 8.8 7.4-.5.5-22.9-2.4-33.2-4.3-6.3-1.2-9.8-.2-9.8 2.7 0 .9-.4 3-.9 4.7-2.3 7.5-6.7 25.9-8.2 34.5l-1.4 7.3-4.5-.7c-2.5-.3-7-1.1-10-1.6-3-.6-9.7-1.4-14.9-1.9-5.2-.5-10.6-1.2-12-1.5-1.4-.4-15-.7-30.1-.6-25.8.1-45.3 1.4-62 4.1-13.9 2.3-17 2.4-17 .8 0-1.9-4.2-4.8-7-4.8-2.7 0-2.7 4 0 4.7 1.1.3 2 .9 2 1.3 0 .8-8.4 2-14 2h-3.5l5.1-4.8c5.8-5.4 6.9-6.3 14.9-11.8 7.8-5.3 23.5-12.8 30.5-14.6 4.3-1.1 17.5-3.6 21.4-4 1.6-.2 3.4-1.1 4-2 1.9-3.1-.5-4.2-13.9-6.4-1.6-.2-6.1-.9-10-1.5-3.8-.7-9-1.8-11.5-2.6s-6.7-1.9-9.5-2.4c-14.9-2.5-17.6-3.4-16.8-5.5.9-2.3-1.7-4.4-5.3-4.4-4.2 0-4.6 2.3-.6 4.5 2.6 1.5 2.4 1.6-4.3 1-11.6-1.1-11.2-1.8 7.3-11.3 3.9-2.1 6.6-3.5 11.9-6.3 7.4-3.9 10.8-4.5 14.1-2.3 1.5 1 4.9 3 7.7 4.4 2.7 1.5 7.5 4.2 10.5 6 3 1.8 8 4.6 11 6.3 3 1.7 7.3 4.2 9.5 5.7s5.7 3.7 7.8 4.9c2 1.1 5.3 3 7.2 4.1 1.9 1.1 5.2 3 7.3 4.1 2 1.2 4.8 2.9 6.2 3.9 2.7 1.8 10.8 6.3 20.3 11.3 3.2 1.7 9.5 6.1 14 9.9 4.5 3.7 9 6.8 10 6.8 2.5 0 2.1-3.7-.5-5.1-1.3-.7-3.9-2.8-5.8-4.8-3.4-3.4-10.6-8.1-21.5-14.1-2.7-1.5-11.9-6.8-20.3-11.8-8.4-5.1-15.5-9.2-15.8-9.2-.3 0-2.4-1.3-4.7-2.9-2.3-1.6-5.9-3.8-8-5-6-3.4-9.9-5.6-14.7-8.4-2.5-1.5-7.3-4.1-10.7-5.7-3.5-1.7-6.3-3.4-6.3-3.8 0-.9 5-3.2 7-3.2.9 0 1.9-.3 2.3-.6.8-.9 16-6 25.7-8.8 4.7-1.3 12.8-2.9 18-3.6 5.2-.6 11.3-1.6 13.5-2.1 9.4-2.2 42.4-3.3 57.5-1.9zm592.8 13.2c-.6 1.8-2.8 2.1-2.8.4 0-.9.7-1.6 1.6-1.6.9 0 1.4.5 1.2 1.2zm-22.3 18.7c5.5 3.7 9.6 9.9 10.2 15.5.5 4 0 5.7-3.8 13.2-2.3 4.8-6.3 10.9-8.8 13.5-4.6 4.8-5.6 5.3-16.3 7.4-1.9.4-2.8 1.2-2.8 2.4 0 2.8 2.9 7.8 5.8 10.2 2.4 1.8 3.6 2 9.7 1.6 9.3-.8 11.1 0 10.7 4.5-.4 4.1.4 4.6 8.9 5.5 5.7.6 9.8-.7 17.6-5.7 1.2-.8 2.5-1.1 2.9-.7.8.7-1.4 14.5-2.6 16.2-.3.5-1.2 3-1.9 5.5s-1.7 5.5-2.2 6.8c-.5 1.3-.9 3.1-.9 4.1 0 .9-.9 3.6-2 5.9-1.1 2.2-2 4.7-2 5.4-.1 3.1-2.8 5-6.2 4.5-27.7-4.5-56.7-8.3-69.8-9.2-4.1-.3-9.7-1-12.5-1.5-2.7-.5-8.3-1.1-12.3-1.5-10.3-.9-49-.7-50.5.2-.6.4-4.3 1.1-8.2 1.4-3.8.4-9.9 1.2-13.5 1.8-3.6.7-8.7 1.6-11.5 2.1-2.7.4-6.8 1.3-9 1.9-2.2.6-5.8 1.5-8 2.1-2.2.5-6 1.4-8.5 2-2.5.7-8.1 2-12.5 3-13.5 3.1-20.8 5-21.9 5.8-.6.5-4.9 1.9-9.6 3.1-4.7 1.3-15 4.5-23 7.1-17.9 5.8-25.9 8.2-37.5 11-4.9 1.2-11 2.9-13.5 3.7-2.5.8-6.3 1.8-8.5 2.3-2.2.4-7.1 1.8-11 2.9-7.5 2.3-13 3.7-21 5.1-2.7.6-7 1.4-9.5 2-5.5 1.3-14.1 2.7-24 3.9-4.1.6-8.8 1.2-10.5 1.5-1.6.3-10.4 1-19.5 1.6-26.9 1.6-61.4-2-91.5-9.4-9.9-2.5-21.1-5.2-25-6.1-3.8-1-8.8-2.3-11-3-2.2-.6-6-1.8-8.5-2.5s-5.6-1.6-7-2c-1.4-.5-4.7-1.4-7.3-2.2-2.7-.7-5.3-1.8-5.9-2.5-.9-1.2-.7-6 1.6-28.8.2-2.2 1.4-9.4 2.5-16 1.2-6.6 2.6-14.8 3.1-18.3.6-3.5 1.6-9.6 2.4-13.5.8-4 1.6-8.3 1.9-9.7 1.5-8.1 6.8-30.3 7.4-31.5.7-1.1 2.1-.8 7.8 2.1 3.9 2 9.3 4.5 12 5.6 2.8 1.1 6.4 2.5 8 3.3 12.1 5.2 34.3 11.2 56.1 14.9 11.6 2 39.4 2.1 55.8.1 6.6-.8 18.4-2.1 26.1-3 20.2-2.4 35.7-5.1 65-11.5 29.1-6.3 44-9.4 51.5-10.6 9.5-1.5 15-2.5 29.5-5.3 9.2-1.8 17.8-3.3 26.5-4.6 1.9-.3 8-1 13.5-1.5s12.5-1.2 15.5-1.5c9.5-.9 40.9-4.5 57.5-6.6 25.1-3.1 76-6.4 85.5-5.6 3 .3 8.1 0 11.2-.7 3.2-.6 9.2-1 13.5-.8 6.4.4 8.5.9 11.8 3.1zm23 15.2c-.4 1.1-.1 2.7.6 3.5 2.1 2.5-6.1 17-15 26.6-8.6 9.2-14 13.1-17.9 12.6-4-.4-3.3-2.8 1.2-4.3 5.6-2 8.5-4.4 13.3-11.1 7-9.7 12.3-21.4 12.3-27.1 0-3.4 1.5-4.5 4.3-3.1 1.2.6 1.6 1.6 1.2 2.9zm13 4.5c-.4 2.6-.2 4.5.5 4.9.7.4.2 1.6-1.5 3.2-1.4 1.4-2.5 3-2.5 3.5 0 2.1-9.6 15.1-13.4 18.1-10.1 8.1-13.8 8.6-6.5.9 9.9-10.2 17.6-23.9 16.4-29.1-.5-2.3-.1-3.3 2-4.9 4-3.1 5.8-1.9 5 3.4zm11.4 2.3c.9.6 1.2 1.8.7 3.7-.4 1.6-.9 4-1.2 5.4-.3 1.4-1.4 4.4-2.5 6.7-1 2.4-1.9 4.5-1.9 4.8 0 1.1-8.3 12.8-11.8 16.7-4.5 4.9-15.2 10-15.2 7.1 0-.3 2.1-3.2 4.8-6.2 6.5-7.6 12.6-15.8 15.1-20.4 1.2-2 2.9-5.2 4-7 1.6-2.8 1.7-3.6.5-5.2s-1-2.1 1.9-4.1c3.7-2.6 3.7-2.7 5.6-1.5zm-550.4 4.8c20 3.7 39.1 4.4 57.2 2.2 13.6-1.6 13.7-1.5 13 6.8-.4 3.7-1.1 7.1-1.7 7.7-1.5 1.5-8.9 1.6-17.5.4-8.9-1.2-30.4-5.5-37.5-7.5-3-.8-6.6-1.7-8-2-4.3-.8-22.9-8.6-22.5-9.4.6-.8 5.6-.3 17 1.8zm426 83.1c3.3.6 4 1.2 4.3 3.2.3 3.1-4.7 12.4-7 12.8-4 .8-15.1-13.1-12.5-15.7 1.2-1.2 9-1.4 15.2-.3zm62.4 8.2c18.8 3 20.8 3.9 11.4 5.5-3.4.5-4.8.3-7.2-1.4-3-2.2-6.1-1.9-6.1.5 0 .7.7 1.7 1.6 2.2 1.2.7 1.3 1.1.4 1.7-.7.4-2.3-.4-3.9-1.9-2.8-2.7-5.5-3.4-6.6-1.7-.3.6.7 2.1 2.2 3.5l2.7 2.5-5.7 2.6c-8.4 3.6-9 3.4-6.2-2.7.8-1.8 1.9-5.2 2.5-7.6 1-4 1.3-4.2 4.7-4.2 2 0 6.6.5 10.2 1zm-73 31.4c3 4.7 2.6 5.1-1.4 1.5-3.7-3.4-4.4-4.9-2.1-4.9.8 0 2.4 1.5 3.5 3.4zM482 399.6c0 1.4-2.1 1.9-3.3.7-.9-.9 1.3-3.4 2.4-2.7.5.3.9 1.2.9 2zm200.8 3c-1 1-2.8-.6-2.8-2.4 0-1.5.1-1.5 1.7.1.9.9 1.4 1.9 1.1 2.3zM433.5 408c-.3.5-1 1-1.6 1-.5 0-.9-.5-.9-1 0-.6.7-1 1.6-1 .8 0 1.2.4.9 1zm38.3 1.1c-.2.6-.8 1-1.3 1s-1.1-.4-1.3-1c-.2-.6.4-1.1 1.3-1.1s1.5.5 1.3 1.1zM332 417c6.9 0 7.8 1.1 8.5 10.7l.6 8.3-3.3 2c-4.6 2.8-23.9 12-25.3 12-.3 0-2.8 1.1-5.7 2.5-2.8 1.4-6 2.5-6.9 2.5-1 0-2 .4-2.3.9-.3.4-2.6 1.4-5.1 2.1-2.5.7-4.8 1.7-5.1 2.1-.8 1.4-3.4 1.1-4-.4-.5-1.4 4.3-9.8 12.6-22.2 2.6-3.9 5.5-8.6 6.5-10.5 1-1.9 2.9-5.3 4.3-7.4l2.4-3.9 9.1.7c4.9.3 11.1.6 13.7.6zm170 5c2.2 1.7 2.3 1.9.7 2.6-1.9.7-6-2.3-5.1-3.7.8-1.3 1.6-1.1 4.4 1.1zm-22.6 14.1c-1 1.7-4.4 1-4.4-.9 0-1 .3-2.2.7-2.5.9-.9 4.4 2.3 3.7 3.4zM376 434.6c0 .9-.7 1.4-1.7 1.2-2.5-.5-2.8-2.8-.4-2.8 1.2 0 2.1.6 2.1 1.6zm-23.2 6.1c-.4 2.2-4.8 3.1-4.8 1 0-1.9 1-2.7 3.2-2.7 1.3 0 1.8.6 1.6 1.7zm-9.9 6c.6 2.1 1.1 5.5 1.1 7.5s.5 4 1 4.3c.6.3 1 2.2 1 4.2 0 1.9 1.2 7.3 2.6 11.9 1.5 4.7 2.4 8.8 2 9.1-.5.6-12.5-.4-32.6-2.6-9.3-1-30.6-5.6-35.4-7.6-1.9-.8-3.8-1.9-4.1-2.5-1.1-1.7 1.3-3.7 5.2-4.5 1.9-.3 5.8-1.7 8.7-2.9 2.8-1.3 6.9-2.9 9.1-3.6 2.2-.7 6.7-2.5 10-4 7.7-3.6 18.6-8 19.7-8 .4 0 .8 1.1.8 2.5 0 1.7.9 2.9 3 4 6.6 3.4 8.4.4 2-3.5-2.2-1.4-4-2.8-4-3.3 0-.9 6.1-4.7 7.7-4.7.7 0 1.7 1.7 2.2 3.7zm46.4 2c1 .6-2.2 4.3-3.6 4.3-1.6 0-4.7-3.1-4.7-4.7 0-1.1.9-1.2 3.8-.7 2 .4 4.1.9 4.5 1.1zm300.7.8c6.3.8 13.5 1.9 16 2.4 2.5.6 8.3 1.5 13 2.2 7.3 1 23 4.1 35 6.8 4.9 1.2 12.7 3.9 18.3 6.4 4.6 2.1 4.8 2.3 4.3 5.7-.9 6.5-1.7 10.5-2.6 12.5-2.1 5.2-4.1 16.5-7 40-.6 4.9-1.5 11.7-2 15-.6 3.3-1.5 10.9-2 17-.6 6-1.2 11.6-1.5 12.3-.5 1.5-6.1.8-7.9-.9-.6-.5-1.8-.9-2.8-.9-1 0-3.7-.9-6.1-1.9-2.3-1.1-5.5-2.2-7.2-2.4-1.6-.3-6.1-1.2-10-2-13.4-2.8-23.1-4-40-4.8-9.3-.4-25.3-1.3-35.5-1.9-24.6-1.5-84.4.6-90.8 3.1-1.3.5-6.1.9-10.7.9s-8.7.4-9 1c-.3.5-3 1-5.8 1-2.9 0-8.4.7-12.2 1.5-3.9.9-9.5 2-12.5 2.5s-7.5 1.4-10 2c-2.5.6-7 1.4-10 1.9-3 .6-9.8 2.1-15 3.5-5.2 1.3-13.1 3-17.5 3.6-4.4.7-10.2 1.8-13 2.5-2.7.7-8.1 1.7-12 2.3-3.8.5-16.2 2.4-27.5 4.1-19.7 3-21.7 3.1-52.5 3.1-33.5 0-57.2-1.2-69-3.5-11.9-2.4-24.9-5.7-26.2-6.7-1.2-1-.7-7.6.7-9.1.4-.5 3.3-.1 6.4.9 4.9 1.5 6.2 1.6 9.4.5 6.6-2.4 10.4-7.1 11.6-14.6.5-3.2.1-5.2-2.2-10-3.4-7.2-14.3-23.4-18.3-27.5-1.6-1.5-2.9-3.6-2.9-4.5 0-2.6 5.1-19.8 6.3-21.4.8-.9 2.4-1.1 5-.8 4.5.6 10.7 5.9 13.8 11.9 2.3 4.4 3.7 5.5 4.5 3.3 1.8-4.5-8.3-17.8-14.3-19-4.6-1-5.8-2.1-5.6-5.1.4-4.8 2.3-5.4 10.3-2.8 9.1 3 22.5 5.9 43.5 9.3 16.4 2.8 33.5 2.3 50.2-1.3 3.8-.8 10.4-2.1 14.8-3 4.4-.8 12.3-2.4 17.5-3.6 5.2-1.1 12.2-2.5 15.5-3.1 3.3-.5 9.8-1.6 14.5-2.4 4.7-.8 9.9-1.6 11.5-1.9 1.7-.2 4.8-.9 7-1.5 2.2-.7 8.7-2.1 14.5-3.2 15.8-3.1 19.1-3.7 23.5-4.9 12.7-3.5 39.4-8.1 58-10 7.3-.7 25.8-2.9 42.5-4.9 12.4-1.5 81.4-1.2 94 .4zm-294 3.9c0 .8-.9 1.6-2 1.9-2.2.6-2.7-1.2-.8-3.1 1.3-1.3 2.8-.7 2.8 1.2zm-43.2-.2c-.6 1.8-2.8 2.1-2.8.4 0-.9.7-1.6 1.6-1.6.9 0 1.4.5 1.2 1.2zm88.2 1.3c0 .8-.7 1.5-1.5 1.5-.9 0-1.2-.6-.9-1.5.4-.8 1-1.5 1.5-1.5s.9.7.9 1.5zm16.7 2.9c-.9 2.3-3.7 2-3.7-.3 0-2.1 2-3.3 3.4-2 .5.4.6 1.5.3 2.3zm-38.2.4c0 1.8-2 1.5-2.3-.4-.3-1 .1-1.5 1-1.2.7.3 1.3 1 1.3 1.6zm-54.5 2.7c0 .9-.6 1.2-1.5.9-.8-.4-1.5-1-1.5-1.5s.7-.9 1.5-.9 1.5.7 1.5 1.5zm22.5-.5c1.1 1.7-.5 3.2-2.1 1.9-.8-.6-1.4-1.5-1.4-2 0-1.2 2.7-1.1 3.5.1zm-5.5 5.1c0 .5-.4.9-1 .9-.5 0-1-.7-1-1.6 0-.8.5-1.2 1-.9.6.3 1 1 1 1.6zm66.7 1.7c-1.6 1.5-1.9 1.5-2.7.2-.7-1.1-.5-1.9.7-2.8 2.5-1.8 4.2.3 2 2.6zM363 466c0 .5-.4 1-1 1-.5 0-1-.5-1-1 0-.6.5-1 1-1 .6 0 1 .4 1 1zm-127.7 2.1c.7 1.2.4 2.8-1.1 6-2.7 5.6-5.8 16.6-7.2 24.9-.6 3.6-1.7 10.3-2.5 15-1.1 6.5-3.5 41.4-3.5 50.6 0 2.6-3.9 1.5-5.4-1.5-1.1-2.1-1.4-5.5-1.2-12.7.3-10.4 4.5-42.2 6.9-53.4.8-3.6 2.2-9.9 3.2-14 .9-4.1 2.1-8.9 2.7-10.5 2.3-6.1 5.8-8 8.1-4.4zm135.3 2c1 1.7-1.3 3.6-2.7 2.2-1.2-1.2-.4-3.3 1.1-3.3.5 0 1.2.5 1.6 1.1zm10.2 1.7c.3.9-.2 1.3-1.4 1-.9-.1-1.9-.9-2.2-1.6-.3-.9.2-1.3 1.4-1 .9.1 1.9.9 2.2 1.6zM253 475.6c0 .8-.4 1.2-1 .9-.5-.3-1-1-1-1.6 0-.5.5-.9 1-.9.6 0 1 .7 1 1.6zm110.5 1.4c1.1 1.8-.5 3.1-2.6 2-1.1-.6-1.7-1.5-1.4-2.1.8-1.2 3.2-1.2 4 .1zm10.1 1.4c1.8 1.4 1.8 1.5.2 2.1-2.4.9-4.8-.1-4.8-2s2-1.9 4.6-.1zM258 487.1c0 .5-.7.9-1.5.9-1.5 0-2-1.2-.9-2.3.8-.8 2.4.1 2.4 1.4zm-19 1.4c0 .8-.7 1.5-1.5 1.5s-1.5-.7-1.5-1.5.7-1.5 1.5-1.5 1.5.7 1.5 1.5zm14 15.9c0 1.8-1.6 2.9-3 2.1-1.3-.8-.1-3.5 1.6-3.5.8 0 1.4.6 1.4 1.4zm-11.7 6.2c.9 1-.4 3.4-1.9 3.4-.8 0-1.4-.6-1.4-1.3 0-2.2 1.9-3.5 3.3-2.1zm0 7.9c.4.8.3 1.6-.1 1.9-1.3.8-3.5-1.1-2.8-2.3 1-1.5 2.3-1.4 2.9.4zm28.3 12.2c6.4 8.9 11.4 18.8 11.4 22.4 0 3.7-2.3 8.3-5.2 10.3-3.8 2.7-13.9 1.6-16-1.7-1.6-2.5-.2-32.2 1.8-38.6.6-1.9 2.5-.2 8 7.6zM239 530c0 2.1-1.5 2.7-2.5 1-.7-1.2.2-3 1.6-3 .5 0 .9.9.9 2zm3.7 18.7c-.3 1-.5.4-.5-1.2 0-1.7.2-2.4.5-1.8.2.7.2 2.1 0 3zm10.7 7c-.6 2.2-.8 2.3-1.6.9-.5-.9-.6-3.1-.2-4.9.6-3.1.7-3.1 1.5-.9.5 1.3.6 3.5.3 4.9zM241 569.2c0 1.2-2.8 1-3.5-.2-.4-.6-.4-1.9 0-2.8.6-1.6.8-1.5 2.1.2.8 1.1 1.4 2.3 1.4 2.8zm477.5-1.7c13 2.5 18.7 3.8 21.5 4.9.8.3 2.9 1.1 4.5 1.7l3 1.2-3.5.8c-5.1 1.1-10 2.3-23.5 5.4-17.3 4.1-16.9 4.1-17.6-2.5-.3-3-.9-7.4-1.4-9.8-.7-4-.6-4.2 1.6-4.2 1.3 0 8.3 1.1 15.4 2.5zM236 582.1c0 .5-.4.9-1 .9-.5 0-1-.7-1-1.6 0-.8.5-1.2 1-.9.6.3 1 1 1 1.6zm30.7 4.5c18.9 5.2 37 7.4 68.8 8.3 15.4.5 30.7.7 34 .5 3.3-.2 10.5-.6 15.9-.9l10-.6 7.8 8.2c4.3 4.5 7.7 8.6 7.6 9-.7 2.1-21.9 17.2-36.2 25.9-3.2 1.9-8.4 5.2-11.6 7.2-6.3 3.9-20.7 11.4-33.5 17.3-4.4 2.1-9.9 4.7-12.2 5.8-4.7 2.2-6.4 1.7-4.5-1.3 1.6-2.6 2.6-4.7 4.6-9.3 3.4-7.9-1.6-23.2-6.5-20.1-.5.3-2 2.7-3.4 5.4-3.5 6.9-7.9 10-14.3 10-6.1 0-13.5-3-18-7.3-3.8-3.6-9.2-12.6-9.2-15.2 0-.9-1.4-4.8-3.1-8.6-2.7-6.2-4.8-15.5-6.6-28.6-1-7.8.3-8.5 10.4-5.7zm370.8 5.1c1.6 1.6 3.5 5.5 3.5 7.3 0 .5-1.5 1.3-3.2 1.8-1.8.6-6.7 2.4-10.8 4.2-4.1 1.8-8.8 3.8-10.5 4.5-22.8 9.6-23.4 9.9-38.5 17.2-7.4 3.7-15.4 7.9-17.7 9.5-2.3 1.5-4.4 2.8-4.7 2.8-.4 0-3.6 1.8-7.2 4-7.6 4.6-9.4 4.2-9.4-2 0-2.1-.8-5.8-1.9-8.2-3-6.9-7-15.1-8.3-17-.8-1.1-.9-2.1-.3-2.7.8-.8 8-2.6 18.5-4.7 1.4-.3 3.4-.9 4.5-1.4 1.1-.5 3.4-1.1 5-1.5 1.7-.3 4.6-1 6.5-1.4 8.8-2.2 13.9-3.3 19.5-4.2 3.3-.5 8.9-1.6 12.5-2.5 3.6-.8 9.3-2.2 12.8-3 3.4-.8 8.8-1.8 12-2.1 3.1-.3 7.5-.9 9.7-1.3 5.9-1.2 6.2-1.1 8 .7zM508 605.6c0 1.6-1.6 1.9-2.5.4-.8-1.3.4-3.2 1.6-2.5.5.4.9 1.3.9 2.1zm136.7.6c4 5.2 4.1 25.4.3 48.6-1.6 9.5-2.4 10.4-9 9.2-2.5-.4-8-1-12.3-1.3-4.2-.4-8.1-.8-8.6-1.1-.4-.3-4.1-.2-8.2.3-4.1.4-8.5.5-9.9.1-1.4-.4-7.2-.3-13 .2-33.5 2.8-43.6 3.4-44.7 2.6-2-1.5-.4-8 2.6-10.5 1.4-1.3 3.1-2.3 3.7-2.3.6 0 1.9-.9 2.9-2s2.2-2 2.8-2c.5 0 3.7-1.7 7.1-3.7 9.5-5.9 13.4-8 22.6-12.4 8.5-4.1 10.8-5.2 23-10.7 3.6-1.6 9.4-4.3 13-5.9 14.1-6.6 22.7-10 25.6-10.2.6-.1 1.6.5 2.1 1.1zM425 621c3.6 2.6 7.6 5.3 9 6 8 4.3 22.3 14.6 27.1 19.7 9.4 9.8 15.8 22.5 12.5 25.2-1.2 1-11.8 3.1-30.1 5.8-20.8 3-26.7 4.1-37.6 6.6-3.5.9-9.3 2.1-12.9 2.7-3.6.6-8.5 1.5-11 2s-7.4 1.4-11 2c-3.6.6-8.5 1.5-11 2s-7.9 1.3-12 1.9c-4.1.6-10.9 1.5-15 2.1-4.1.5-15.7 1.1-25.6 1.1-14.6.2-19.5-.2-25-1.6-6.6-1.7-9.3-3-8.3-3.9.2-.2 4.9-1.6 10.4-3 5.5-1.5 11.1-3.5 12.5-4.4 1.4-1 4.5-2.7 7-3.9 46.5-22.2 58-28.3 80.5-42.6 7.5-4.8 27.3-19.4 30.3-22.4 1.6-1.5 1.6-1.5 10.2 4.7zm40.1 9.3c-1.3 1.3-2.6.3-1.6-1.2.3-.6 1.1-.8 1.7-.5.6.4.6 1-.1 1.7zm56 12c-.5.5-1.7.7-2.6.3-1.4-.5-1.5-.9-.5-2.1 1-1.2 1.6-1.3 2.7-.4.9.8 1 1.6.4 2.2zm-11.7 6.2c.3.8.1 1.5-.4 1.5-.6 0-1-.7-1-1.5s.2-1.5.4-1.5.6.7 1 1.5zM313 650.9c0 2.8-3.7 6.9-8.2 9.2-3.5 1.8-5.2 2-11.7 1.5-16-1.3-15.6-1.3-15.6.9 0 2.8 5.5 4.4 16.8 5 5.1.2 9.3.8 9.5 1.3.1.5-1.3 1.7-3.2 2.7-3.2 1.7-4 1.8-8.3.6-2.7-.7-6.4-1.7-8.3-2.2-1.9-.4-4.7-1.1-6.2-1.5-2.1-.5-2.9-.2-3.5 1.1-.9 2.4 1.5 3.9 9.8 6.5 3.8 1.2 7.1 2.6 7.4 3 .3.5-1.2 1.4-3.4 2.1-3.5 1-5 .9-11.3-1-4-1.2-9-2.7-11.1-3.3-2-.6-4.2-1.7-4.8-2.4-1.7-2 0-3.6 3.1-2.9 1.9.4 3.3.1 4.4-1 1.5-1.5 1.5-1.9-.4-4.5-2.6-3.7-2.5-4.1.8-3.4 1.9.4 3.2.1 4.2-1.1 1.1-1.3 1-2-.8-4.5-2.2-2.9-2.9-6-1.4-6 .5 0 3.7 1.4 7.3 3.1 11.6 5.7 22.7 4.9 29.4-2.1 3.3-3.4 5.5-3.9 5.5-1.1zm169 5.8c0 1.2-.7 1.4-2.7.8-3.3-.8-3.9-1.3-4.8-4.3l-.6-2.2 4 2.1c2.3 1.1 4.1 2.8 4.1 3.6zM641.5 672c19.9 2.4 37.5 5.6 42.3 7.6 1.9.8 4.3 1.4 5.4 1.4 4.9 0 29.8 9.8 36 14.2 3 2.1 3 3 .1 13.8-.8 3-2.3 10-3.4 15.4-1 5.5-3 13.8-4.5 18.5-1.4 4.7-2.9 10.2-3.4 12.1-.4 1.9-1.3 5.5-2 8-.6 2.5-1.7 6.7-2.4 9.5-.7 2.7-1.5 5.7-1.8 6.5-1.8 4.7-4.8 14.9-4.8 16.2 0 3.9-2.5 4-11.6.4-8.8-3.4-26-9.7-38.4-14.1-7.1-2.5-21-5-33.5-6-4.3-.3-11.5-1.3-16-2.1-6.3-1.3-12.7-1.5-30.5-1-12.4.3-26.1.9-30.5 1.5-4.4.5-15.4 1.6-24.5 2.5-9.1.9-18.1 1.9-20 2.3-1.9.4-4.6.8-6 .8-3.6.2-13.5 2.4-20.5 4.6-3.3 1-11.6 3.2-18.5 4.9-6.9 1.7-13.4 3.5-14.5 4-1.1.5-3.3 1.1-5 1.3-1.6.3-7.3 1.5-12.5 2.7-5.2 1.2-12.2 2.4-15.5 2.6-3.3.2-6.7.7-7.5 1-1.5.6-7.4 1.4-23.5 3.3-4.4.6-13.2 1.7-19.5 2.5-17.1 2.2-40.8 1.3-64-2.4-11.7-1.9-13-2.2-13.6-3.1-.3-.5-2.2-.9-4.2-1-2 0-5.3-.6-7.2-1.3l-3.5-1.3-.5-11.4c-.5-11.4.5-77.8 1.3-83.3.2-1.7 1-3.2 1.7-3.4.7-.3 4.2.5 7.9 1.6 11.5 3.6 14.6 4.2 23.7 4.8 9.9.6 39.6-1 48.9-2.6 3.3-.5 8.5-1.5 11.5-2s8.7-1.4 12.5-2c14.5-2 35.2-5.7 37.5-6.6 2.4-1 16.9-4.1 25-5.4 3-.5 9.1-1.5 13.5-2.4 45.4-8.4 52.7-9.4 75.5-10.6 10.2-.5 26.4-1.6 36-2.4 26.1-2.3 27.9-2.4 48.5-2 10.9.2 26.2 1.2 36 2.4zm104.7 70c8.4 2.8 16.9 5.5 18.8 6.1 1.9.6 4.6 1.5 6 2.1 2.5 1.1 5.4 2.2 10 4.1 1.4.5 3.4 1.4 4.5 2 1.1.6 4.4 2.3 7.3 3.9 3 1.5 6.6 3.7 8.2 4.8 1.5 1.1 3.1 2 3.4 2 1.2 0 36.1 23.8 38 25.9 1.1 1.1 2.3 2.1 2.7 2.1.4 0 6.1 5.2 12.6 11.5 9.2 8.9 11.3 11.4 9.6 11.5-1.2 0-2.5-.5-2.8-1-.3-.6-1.9-1-3.4-1s-3.1-.3-3.5-.7c-.9-1-11.2-3.2-15-3.2-1.6-.1-4.3-.5-6-1-1.7-.5-5.1-1.5-7.6-2.2-2.5-.7-7.9-2.3-12-3.6-8.9-2.9-23.6-5.6-28.2-5.1-6.2.6-4.9 3.1 9.4 17.7 16.2 16.5 23.5 24.5 30.8 33.5 3 3.8 7.4 9 9.8 11.6 2.3 2.6 4.2 5 4.2 5.2 0 .9-6.4-.8-10-2.6-1.8-.9-4.1-1.6-5.2-1.6-1 0-2.6-.4-3.6-.9-.9-.5-3.4-1.6-5.4-2.5-2.1-.9-5.3-2.2-7-3-1.8-.7-4.9-1.9-6.8-2.6-4.3-1.5-7.9-3-10.2-4.1-1-.5-2.7-.9-3.7-.9-1.1 0-2.2-.4-2.5-.9-.3-.5-1.8-1.1-3.3-1.4-5.2-1.1-11.8-2.6-16.3-3.7-2.5-.6-6.7-1.6-9.5-2.1-2.7-.6-7-1.5-9.5-2-7-1.6-15.7-2.9-25-3.9-4.7-.5-11.9-1.3-16-1.9-16.7-2.2-26.2-3.1-41.5-4.2-21.2-1.4-27.8-2.2-28.2-3.4-.2-.6 1.5-3.4 3.6-6.3 2.2-2.9 5.1-7.6 6.5-10.6l2.6-5.4 5.7-.4c6.1-.4 18.6 1 33.7 3.7 4.8.9 10.2 1.5 11.9 1.3 2.8-.3 3.2-.8 4.3-5.3 3.1-12.8 4.7-18.3 6.4-22 2.1-4.7 5-14.4 8-26.8 1.1-4.9 2.5-9.6 2.9-10.5.5-.9 1.4-2.9 2-4.5.6-1.5 1.7-2.7 2.5-2.7s8.3 2.3 16.8 5zm-143.4 39.3c.9.7 1.2 2.1.8 4-1.1 5.2-2.1 5.7-12.5 5.8-15.2.2-29.5 1.6-49.1 4.8-3 .5-8.2 1.4-11.5 1.9-5.7.9-22.4 4.7-25.4 5.7-1.5.6-1.2-4.2.9-13.2 1.2-5.1 1.2-5.1 5.9-5.8 2.5-.4 9.1-1.1 14.6-1.5 11.8-1 30.6-3 32-3.4 3-.8 43.1.6 44.3 1.7zm61.7 12.4c2.8 1 5.9 2.4 7 3.1 1.9 1.3 1.9 1.3-.5.7-1.4-.3-5.5-.8-9.2-1.2-6.4-.6-6.8-.7-6.8-3.1 0-2.8 1-2.7 9.5.5zm-52.1.5c.3.7.7 2.5 1 4 .8 3.4 2.3 3.5 7.1.7 2.8-1.7 3.8-1.9 5-.9.8.7 1.5 2.1 1.5 3.2 0 2.7 2.9 3.4 6.3 1.4 3-1.7 3.1-1.6 5.9 1 3.5 3.4 3.5 4.7-.2 10.6-3.5 5.6-9.1 10.1-12 9.6-2.1-.3-1.9-.7 2.4-7 4.5-6.6 5-9.1 1.9-10.2-1.5-.6-3.7 1.4-10.6 9.8-4.7 5.7-8.6 7.8-13.5 7.4l-3.7-.3 2.8-1.5c3.3-1.6 12.2-15.3 11.3-17.5-1.1-3-3.6-2.8-6.9.3-5.1 4.9-10.8 8.2-13.8 8.2-3.8 0-3.6-.9.6-5 2-1.9 5.3-6.1 7.3-9.2 3.5-5.5 6.8-7.4 7.6-4.6zM452.5 799c1.2 2-5.9 12.4-10 14.7-5.1 2.9-5.7 2.9-9.5-.3-2.6-2.2-3.1-3.3-2.8-6.3l.3-3.6 9.5-2.6c11-3.2 11.7-3.3 12.5-1.9zm144.5-.1c0 1.1-12.8 13.1-14 13.1-.6 0-1-.5-1-1.2 0-1.8-4.9-7.8-6.4-7.8-.8 0-1.9.7-2.6 1.5-1 1.3-.9 1.9.6 3.7 1.1 1.1 3.3 2.7 5.1 3.4 2 .9 3 1.9 2.7 2.7-.7 2 2.6 4.4 7.4 5.4 2.4.4 4.3 1.1 4.3 1.5-.1.5-.1 1.7-.1 2.8 0 1.9-.5 1.9-12.2 1.4-6.8-.3-22.6-.9-35.3-1.4-44.1-1.6-48.5-2.1-48.5-5.2 0-.6.7-2.5 1.6-4.3 1.2-2.6 2.4-3.5 5.9-4.4 2.4-.6 5.8-1.1 7.5-1.1 1.7 0 4.1-.5 5.2-1.1 8.3-4.5 79.8-12.5 79.8-9zm-144 20c0 1 .7 2.4 1.5 3.1 1.3 1.1 2.1.9 4.5-.8 3.4-2.5 6-2.8 6-.8 0 2.4 2 2.9 6.2 1.5 3.7-1.2 4.2-1.1 5.5.7.9 1.3 1.2 3.2.8 5.9-1.1 6.7-1.4 7.3-5.7 9-5.7 2.3-6.9.7-3-4.1 2.4-2.9 2.9-4.1 2.1-5.6-1.6-3.1-4.1-2-10.1 4.2-5.3 5.6-6 6-10.2 6-4.6 0-6.2-1.5-2.8-2.7 2.9-1 8.2-5.3 8.2-6.7 0-.8-.7-1.9-1.5-2.6-1.3-1.1-2.4-.9-6.2 1-5.3 2.6-16.3 3.4-17 1.2-.3-.8.7-1.2 3-1.2 5 0 10-2.4 13.3-6.4 3.2-3.9 5.4-4.6 5.4-1.7z"/><path d="M422 123.8c0 .6.8 1.5 1.8 2 2.6 1.4 16.1 3.6 16.9 2.8 1.2-1.2-1.6-2.9-6.4-3.8-11.4-2-12.3-2.1-12.3-1zM416.5 129.9c-1.7 2.8 2.7 4.3 17.2 6.1 5.1.5 10.4 1.5 11.8 2 2.7 1 5.8.3 5-1.1-.7-1-7-2.8-14.5-4-9.6-1.6-15.4-2.7-17.1-3.4-1-.3-2-.2-2.4.4zM556 136.5c0 1.2 1.3 1.4 7.8.9 10.8-.9 11.4-2.4.9-2.4-7 0-8.7.3-8.7 1.5zM502.4 144c-1.1.4-4.7 1.1-8 1.5-8.8.9-10.4 1.4-10.4 3 0 1.3 1 1.4 5.8.9 8.2-1 18.5-3.7 19-5.2.4-1.4-3.2-1.5-6.4-.2zM502.7 201.8c-1 .2-8.7.9-17 1.5-13.3 1.1-15.2 1.4-15.5 3-.3 1.7.3 1.8 9.5 1.2 5.4-.4 11.6-1.1 13.8-1.6 5.1-1.1 15.5-1.2 15.5-.1 0 .5-3.1 1.5-7 2.2-10.3 2-8.8 3.4 2.8 2.5 5.3-.4 9.9-.9 10.2-1.1.2-.3-.1-1.3-.8-2.4-1-1.7-.7-2 2.6-3.1 7-2.2 6-3-3.3-2.7-5 .2-9.8.5-10.8.6z"/><path d="M482.3 209.7c-1.3.2-2.3 1.1-2.3 2 0 1.3.8 1.5 4.6.9 2.6-.3 5.7-.6 7-.6 1.5 0 2.4-.6 2.4-1.5 0-1.1-1.1-1.5-4.7-1.4-2.7.1-5.8.4-7 .6zM145.4 219.5c-.3.8-.3 1.9.1 2.5.8 1.3 12.1 9 13.3 9 .4 0 1.7.8 2.8 1.8 2.5 2.4 23.4 16.2 24.4 16.2.4 0 1.3.7 2 1.5s2.4 2.1 3.9 2.8c5.3 2.8 10.6 5.9 12.2 7.3 2.8 2.5 6 1.6 4.1-1.2-.7-1.2-60.8-41.4-61.7-41.4-.3 0-.8.7-1.1 1.5zM173.3 219.7c-.8 1.9 1.5 4 16 14.6 18.4 13.5 29.5 20.7 31.8 20.7 2.4 0 .4-3.2-3.8-6.1-2.7-1.8-6.4-4.5-8.3-5.9-1.9-1.5-9.7-7.3-17.2-12.9-7.6-5.6-14-10.6-14.3-11.1-1-1.6-3.5-1.1-4.2.7zM119.5 221c-1 1.6.2 2.7 7.5 7 3.7 2.2 8.9 5.6 11.4 7.5 2.6 1.9 4.8 3.5 5.1 3.5.3 0 5.7 3.4 12 7.5s16.7 10.9 23.1 15.1c13 8.5 19.8 12.4 21.3 12.4 2.5 0 .8-3.1-3.1-5.7-2.4-1.6-8-5.5-12.5-8.6-4.5-3.1-8.4-5.7-8.7-5.7-.4 0-9.4-5.9-20.1-13-20.8-13.9-26.9-17.7-29.7-18.7-1-.3-1.8-.9-1.8-1.4 0-1.2-3.7-1.1-4.5.1zM229.7 224.7c-1.4 1.3-.5 2.4 9.1 10.1 26.1 21 38.2 29.1 38.2 25.3 0-.7-18.1-15.8-31.3-26.1-1.8-1.3-5.3-4.1-7.8-6.2-4.5-3.7-6.8-4.5-8.2-3.1zM107.3 227.5c-.7 2.1 1.8 4.7 7.2 7.5 2.4 1.3 5.2 3.1 6.1 4.1 1 1.1 2.1 1.9 2.6 1.9s5 3 10.1 6.6c5.1 3.7 9.9 6.9 10.7 7.2.8.3 5.5 3.2 10.3 6.4 4.9 3.2 9 5.8 9.3 5.8.2 0 3.4 1.8 7 4s6.8 4 7.1 4c.2 0 2.3 1.3 4.6 2.8 2.3 1.5 5.6 3.4 7.2 4.1 1.7.7 3.8 1.7 4.7 2.2 2.3 1.1 5.8 1.2 5.8 0 0-.8-7.4-6.1-8.6-6.1-.3 0-2.6-1.4-5.1-3-2.4-1.7-4.6-3-4.9-3-.3 0-2.9-1.5-5.7-3.4-2.9-1.8-7.4-4.6-10.2-6.1-2.7-1.5-6.8-4-9.1-5.6-2.4-1.6-4.6-2.9-4.9-2.9-.4 0-1.9-.9-3.3-2-3.8-2.9-39.1-26-39.7-26-.3 0-.8.7-1.2 1.5zM251.3 229.6c-.7 1.8-1.8.7 13.7 13 17.4 13.8 26.2 19.5 27.7 18 .9-.8-1.3-2.8-14.1-13.1-4.8-3.9-12.1-9.8-16.3-13.3-7.9-6.4-9.9-7.3-11-4.6zM85 230.4c0 1.3 4.8 4.8 10.5 7.6 1.7.8 6.2 3.6 10.1 6.2 6.7 4.4 8.6 5.5 18.2 10.9 2 1.2 4.2 2.5 4.7 2.9 1.1.9 6.3 3.9 14.3 8.2 2.8 1.5 7.7 4.1 10.7 5.8 3 1.6 8 4.3 11 6 3 1.6 8 4.3 11 6 3.1 1.6 8.8 5.6 12.9 8.9 7.6 6.2 10.8 7.7 11.3 5.1.2-1-2.8-3.8-7.9-7.6-14.3-10.4-14.8-10.8-38.3-23.4-2.7-1.5-6.7-3.7-8.7-4.9-2.1-1.1-5.4-3-7.3-4.1-1.9-1.1-5.2-3-7.2-4.1-2.1-1.2-5-3-6.5-4-1.4-1.1-2.9-1.9-3.3-1.9-.3 0-3.2-1.8-6.4-3.9-3.2-2.2-7.4-4.9-9.4-6-2-1.2-5.4-3.1-7.4-4.3-9.3-5.3-12.3-6.1-12.3-3.4zM277 238.5c0 1.7.5 2.1 9.8 9.2 10.9 8.3 20.7 15.2 21.5 15.3 2.3.1-.4-3.4-8-10-16.2-14.4-23.3-18.7-23.3-14.5zM58 241.4c0 1.5 3.4 4.2 8.5 6.6 1.7.8 4.8 2.6 7 4s5.4 3.2 7 4c1.7.8 5.7 3.2 8.9 5.2 6 3.9 9.6 4.8 9.6 2.5 0-1.2-14.7-11.2-22.5-15.3-6.6-3.4-11.9-6.5-12.9-7.5-1.6-1.4-5.6-1.1-5.6.5zM43.4 245.5c-.7 1.8.3 3.5 2.1 3.5 1.5 0 9.6 3.8 16.7 7.9 3 1.8 4.8.8 3.2-1.7-1.1-1.6-3.4-3.1-13.3-8.4-6-3.2-7.9-3.5-8.7-1.3zM304.6 245.9c-1.2 1.9.6 3.7 8.8 9.4 7.9 5.3 11.6 6.9 11.6 4.8 0-1.4-17.4-15.1-19.2-15.1-.4 0-.9.4-1.2.9zM321.5 247.9c-.6 1.1 2.1 3.8 6.4 6.4 4.5 2.6 4.9.2.6-3.8-3.7-3.5-5.9-4.3-7-2.6zM113 275.8c0 2.2 3 5.2 5.1 5.2.8 0 1.9.4 2.5.9.5.5 6.2 3.7 12.7 7 9.8 4.9 11.9 5.7 12.4 4.4.7-1.8-1.7-3.8-8.7-7.6-15.6-8.4-22.1-11.7-23-11.7-.6 0-1 .8-1 1.8zM98.6 279.9c-1.3 2.1 1 4.2 9.2 8.4 4.8 2.4 9.7 4.9 11 5.5 6.1 3.3 6.4 3.4 7.5 2.3 1.8-1.8 0-3.6-6.9-7.1-3.8-1.9-9-4.6-11.5-6.1-5.8-3.3-8.6-4.3-9.3-3zM85 286.3c0 1.5.9 2.8 2.3 3.4 11.4 5.5 15.9 7.3 18.1 7.3 1.4 0 2.6-.4 2.6-.8 0-1.2-2.9-3.5-6-4.9-1.4-.6-5.4-2.4-8.9-4.2-7.6-3.7-8.1-3.8-8.1-.8zM70.1 288.4c-.9 1-.3 1.8 2.6 3.8 4.7 3 13.9 6.8 14.7 6 .3-.3.6-1.2.6-2.1 0-1.5-1-2.2-9.2-5.5-2-.9-3.9-2-4.3-2.6-.9-1.4-3.1-1.2-4.4.4zM59.7 292.7c-1.5 1.5-.5 3.3 2.6 4.6 1.7.8 4.9 2.2 7.1 3.2 2.7 1.2 4.1 1.4 4.9.6 1.5-1.5-.5-3.5-6.6-6.6-5.3-2.6-6.9-3-8-1.8zM50.5 297.7c-.8.8-1.5 1.6-1.5 1.8 0 .6 10.4 5.5 11.7 5.5.7 0 1.3-.9 1.3-1.9 0-1.3-1.6-2.7-5-4.4-4.5-2.2-5.2-2.3-6.5-1zM731.1 260.2c-7.1 15.2-9.7 21-10.5 23.5-.4 1.3-1.3 2.3-2 2.3-1.6 0-10.9-11.5-14.8-18-1.4-2.5-4-5.8-5.7-7.5-2.6-2.4-3.5-2.7-4.9-1.9-2.8 1.8-2.5 3.7 1.5 9.2 2.1 2.8 6.5 9 9.8 13.8 3.3 4.7 7 9.5 8.3 10.6 2.3 2.2 2.8 4.7 1.3 6.4-1.1 1.1-10.1 29.3-10.1 31.6 0 .9 1 2 2.2 2.4 2.4.7 5.8-2.4 5.8-5.5 0-2.8 9.1-27.6 14.5-39.6 4.8-10.7 12.4-28.1 13.5-30.9.9-2.4.8-3.2-.6-4.7-1-1.1-2.1-1.9-2.6-1.9s-3.1 4.6-5.7 10.2zM662.3 257.8c-1.9 1.2-6.5 15-12.9 38.7-.9 3.3-3.1 10.7-5 16.5-3.8 12.1-5.8 21.5-4.9 23 1.3 2 3.2.9 4.8-2.8.8-2 3.1-9 5.2-15.4 2-6.4 4.1-12.1 4.8-12.6.7-.5 4.9-1.2 9.5-1.4 7.8-.4 8.5-.3 9.8 1.7.8 1.3 1.9 4.9 2.5 8.1.5 3.3 1.6 9.7 2.4 14.3.8 4.6 1.7 8.6 2 9 .3.3 1.4 0 2.3-.6 1.4-.9 1.7-2.4 1.5-8.9-.2-4.4-.7-10.2-1.3-12.9-2.9-15.2-5.1-24.8-6-26.4-.5-1-2.1-6.2-3.5-11.5-4.2-15.6-7.5-21.2-11.2-18.8zm4.7 20.8c.7 3.1 2 8.1 3.1 11.2 2.5 7.2 1.7 8.2-6.7 8.2-3.4 0-6.6-.4-6.9-1-.8-1.4 4.8-21.3 6.7-23.7 1.6-2 2.6-.6 3.8 5.3zM589.6 262.9c-5.9 2.1-8.9 5.4-8.1 9 .7 3.5 1.5 10.2 2.1 18.1.8 12.2 6 47.3 8 54.2.4 1.3 1.6 1.8 4.4 1.8 4 0 15.6-3.9 19.7-6.6 6.1-3.9 16.4-22.4 17.8-31.9 1.7-11.7-.3-25.4-4.8-32-5.9-8.7-10.7-11.7-21.4-13.4-9.3-1.4-11.8-1.3-17.7.8zm17.4 4.5c10.5 2.5 13.5 5.1 18.5 15.8 4.5 9.7 2.9 26.4-3.8 39.4-5 9.7-11.8 15.4-20.1 17-5.3.9-5.3.7-9.1-27.5-2.8-20.8-4.4-40.4-3.4-42.3 1.9-3.5 9.3-4.5 17.9-2.4zM513.5 283c-.3.5 1 10.3 2.9 21.7 1.9 11.5 3.7 23.3 4 26.3.3 3 1.2 8.8 2.1 12.8.8 4 1.5 8.3 1.5 9.5 0 3.3 3.3 5 7.8 3.8 2-.5 6-1.4 8.7-1.9 10.8-2.2 10.5-2.1 10.5-4.8 0-2.4-.1-2.5-5.2-1.8-2.9.4-6.3 1.1-7.6 1.5-3.4 1.3-8.2 1.1-8.6-.4-.2-.6-1.6-9.1-3-18.7-1.5-9.6-3.2-20-3.7-23-.6-3-1.6-9.6-2.3-14.5-.6-5-1.5-9.6-1.9-10.3-1-1.4-4.3-1.6-5.2-.2zM468.4 291.4c-.3.7.2 4 1 7.2.8 3.3 2.2 11.3 3.1 17.9 2.1 16.2 3.1 21.7 8.7 47.3 1.4 6.7 2.6 7.7 7 5.9 1.8-.8 5.8-2 8.8-2.7 6.4-1.5 8-2.5 8-5.1 0-2.4-1-2.4-8.9.1-3.6 1.2-7 1.9-7.7 1.6-1.6-.6-5.1-16.3-7.4-33.1-.6-4.4-1.5-10.3-2-13-2.7-14-5.3-26.1-5.7-26.8-.7-1.2-4.3-.8-4.9.7zM430.1 299.3c-2.7 6.9-3.6 11.9-7.5 41.7-4.4 33.1-5.1 41.6-3.7 43.4 1 1.1 1.8 1.3 3.1.6 1.5-.8 1.9-3 2.5-14 .5-9.8 1.1-13.5 2.4-15 1.7-2.1 14.6-7 18.4-7 1.9 0 2.8 1.1 4.9 6.7 1.5 3.8 3 8.1 3.4 9.6 1 4.1 5.2 12.7 6.3 12.7.5 0 1.4-.6 2-1.4 1-1.2.4-4.3-2.9-14.8-5.8-18.6-9.8-30.2-17.9-51.8-3.5-9.1-5.6-12.5-7.9-12.8-1.6-.3-2.5.3-3.1 2.1zm8.3 20.9c4.6 12 7 20.8 6 21.8-1.8 1.5-14.6 6-15.6 5.4-.6-.4-.7-2.7-.3-6.2.4-3 .8-7.3 1-9.6.7-10.5 3.1-20.4 5.1-20.6.1 0 1.8 4.2 3.8 9.2zM238.3 303.2c-1.4 2.3-4.5 11.2-5.3 15.3-.4 2.2-1.4 5.8-2.2 8-.9 2.2-2.1 6.7-2.7 10-.7 3.3-1.6 7.3-2.1 9-.5 1.6-1.4 5.9-2 9.5-.6 3.6-1.7 9.2-2.5 12.4-1.3 5.8-.8 9.6 1.4 9.6 2.1 0 2.9-2.5 6.1-19 1.8-10 3.4-16.9 5.3-24 3.8-14.2 4.6-17 5.2-18.1 1.4-2.1 3.4 2.8 4.5 11.2.7 4.6 1.8 11.1 2.6 14.4.7 3.3 1.6 8 1.9 10.5.3 2.5 1 6.7 1.5 9.5.6 2.7 1.7 8.6 2.6 13 1.6 8.5 2.6 10.5 5.4 10.5 2 0 5-7.4 7.6-18.6.9-3.8 2.2-8.6 3-10.7.8-2 1.4-4.9 1.4-6.4 0-1.4.4-4.2 1-6.2.5-2 1.7-6.5 2.5-10.1.9-3.6 2.1-8.1 2.7-10 .6-1.9 1.1-6 1.2-9 .1-4.8-.1-5.5-1.9-5.5-2 0-2.7 2.1-6.4 19-.5 2.2-1.7 6.9-2.6 10.5-.8 3.6-2.5 10.3-3.6 15-1.1 4.7-2.3 9.8-2.7 11.3-.4 1.6-1.1 2.9-1.7 2.9-1.4 0-2.3-4.2-5.9-26.2-4.3-26.5-5.3-30.3-9.3-35.8-2.6-3.5-3.7-3.9-5-2zM349.6 309c-3.2 1-6.3 2.3-6.8 2.8s-.5 16.2.2 39.8c.9 32.1 1.3 39.1 2.5 40.4 1.2 1.1 1.9 1.2 3.3.4 1.5-1 1.7-3 1.7-16.5v-15.4l6-.7c15.5-1.7 25-13.7 25-31.3 0-13-6.3-19.6-20-20.9-4.4-.4-7.6 0-11.9 1.4zm18.3 5.9c5 2.6 6.6 6.6 6.6 16.1-.1 5.7-.6 8.5-2.2 11.5-5 9.4-15.5 15-20.9 11.1-1.6-1.2-2-3.2-2.5-11.3-1.3-19.1-1.1-26.4.9-27.9 2.7-2.1 13.6-1.8 18.1.5zM305.2 312.2c-1.5 1.9-7.7 15.5-10.5 22.8-1.3 3.6-4.1 11-6.1 16.5-2.1 5.5-5.5 14.5-7.7 20.1-2.1 5.5-3.9 10.6-3.9 11.3 0 .6-.5 2-1.2 3-1.2 2-.5 5.1 1.2 5.1 1.6 0 4.7-5.6 9.3-17.3 2.3-5.9 4.9-10.9 5.7-11.2.8-.2 5.8-.7 11.1-1 7.4-.4 9.9-.2 10.8.9.6.7 1.4 6.4 1.7 12.7.6 12.3 1.5 15.9 3.9 15.9 3.6 0 3.9-4.3 2.1-23.8-1.8-19.9-3.1-29.5-4.6-35.2-.5-1.9-1.6-6.4-2.4-9.9-2.1-8.6-6.5-13.3-9.4-9.9zm4.4 16.1c1.5 4.3 3.4 17.1 3.4 22.7v3.9l-5.2.4c-12.8 1.2-14.2.7-12.6-5.1.5-2 1.8-5.3 2.7-7.2 1-1.9 2.6-6 3.5-9 2.1-6.6 4.3-10.3 5.8-9.8.6.2 1.7 2.1 2.4 4.1zM675.7 356.7c-1.4 1.4-.6 2.3 4 4.3 7.3 3.2 8.4.1 1.1-3.3-4.1-1.9-4.2-1.9-5.1-1zM322.1 457.4c-1.3 1.6-.1 2.8 6.2 6.1 2.3 1.3 6 3.2 8.2 4.4 4.5 2.4 6.5 2.7 6.5.8 0-.7-3.7-3.5-8.2-6.3-10.4-6.2-11.4-6.6-12.7-5zM307.7 461.7c-.4.3-.7 1-.7 1.4 0 2.4 25 15.9 29.5 15.9 4.4 0 2.7-1.9-5.7-6.1-4.5-2.3-11-5.9-14.4-8-6.2-3.9-7.5-4.4-8.7-3.2zM295.2 468.7c.2 1 3 2.8 7 4.4 10.1 4.1 10.8 4.3 10.8 2.4 0-1-2.7-2.9-7.2-5-8.1-3.9-11.1-4.4-10.6-1.8zM603.7 460.7c-.4.3-.8 9.4-.8 20.2-.2 26.2-1.1 42.4-2.5 42.8-1 .3-9.4-15.5-9.4-17.7 0-.5-1.6-4.2-3.6-8.2-1.9-4-4.9-10.5-6.5-14.3-4.6-10.6-8.6-16.5-11.5-16.5H567l.6 36.7c.3 20.1.7 37 1 37.5.9 1.5 4.3.8 4.8-1 .3-.9.2-14.1-.2-29.2-.8-28.7-.4-32.7 3-25.2.9 2 3.1 7.1 4.8 11.2 8.2 18.9 18.7 40.8 20.8 43.2.8 1 2.3 1.8 3.2 1.8 1.5 0 1.8-1.7 2.3-12.8 1.6-31.9 2-64.8.8-67-1.1-2.2-3.1-2.8-4.4-1.5zM650 462.1c-6.1 2.5-8.8 6.7-11.9 18.8-2.4 9.5-2.6 16.7-1 30.9 1.2 11.6 4.1 19.5 7.9 22.2 7.5 5.3 18.7 2.8 23.4-5.3 2.1-3.6 2.8-6.3 3.3-13.1l.6-8.6h-5c-9.2 0-17.5 1.2-18 2.7-.9 2.3.4 2.7 8 2.6 9.9-.2 10.2.1 8.3 7.2-2.8 11-11 15.3-17.3 9.2-3.9-3.6-5.4-9.4-6.2-22.5-1.1-19.4 2.2-33.4 8.8-38.1 3.2-2.3 4.1-2.3 11.4-.5 3.9.9 3.6-2.1-.5-4.6-3.6-2.1-7.8-2.5-11.8-.9zM621.6 463.8c-1.3 2.1-2.2 71.4-.9 73.4.7 1.3 4.3.9 4.3-.5-.1-9.7 1.2-69.2 1.5-69.7.3-.5.2-1.5-.1-2.4-.6-1.7-3.9-2.2-4.8-.8zM687.2 466.2c-.7.7-1.2 3-1.2 5.2 0 2.3-.5 7-1 10.6-.5 3.6-1.4 12.3-2 19.5-.6 7.1-1.4 17.5-1.9 22.9-.9 11.3-.6 13.6 2 13.6 2.7 0 3-1.1 4-13.8 1.4-17.9.6-16.6 9.7-15.7 4.2.4 8 1 8.4 1.4.4.3 0 5.1-.8 10.6-1.9 12.8-1.6 16.9 1.2 17.3 1.7.2 2.4-.5 3.3-2.9.6-1.7.9-3.5.6-3.9-.4-.7.6-8.4 2.5-19 .5-3 1.7-10 2.5-15.5.9-5.5 2.5-13.1 3.6-16.8 1.1-3.8 1.8-7.6 1.5-8.4-.9-2.2-4.9-1.1-6.3 1.8-1.2 2.5-3.4 12.8-5 23.9l-.8 5.5-8-.3c-4.4-.2-8.6-.8-9.3-1.4-1.3-1.1-1-10.7.9-23.8.5-3.6.9-7.3.9-8.2 0-2.3-3.3-4.1-4.8-2.6zM526.3 473.5c-.3.9-.2 3 .2 4.8.4 1.8 1 8.6 1.5 15.2 1.7 25.5 2.1 29.1 3 33.5.5 2.5 1.2 7.6 1.5 11.3.8 8.5 2.3 9.7 11.5 9.4 5.9-.2 6.5-.4 6.8-2.5.3-2-.1-2.2-4.1-2.2-2.8 0-5.3-.7-6.6-1.8-2.3-1.8-2.3-1.3-5.6-34.2-3-30.2-3.4-33.3-4.7-34.2-1.9-1.2-2.8-1-3.5.7zM726.1 473.4c-.7.8-1.1 2.3-.9 3.3.3 1.5 1.8 2 8.3 2.6 4.4.5 8.3 1.2 8.7 1.5.4.4 0 3.2-.8 6.2-.9 3-1.9 8.2-2.4 11.5-1.2 7.8-2.5 14.6-4.3 22-3.2 12.6-5.8 26.6-5.2 27.5.9 1.4 4.1 1.2 5.2-.3 1.2-1.4 4.5-14.5 5.7-22.2.2-1.7 1.3-7.1 2.5-12 1.1-5 2.8-13.1 3.7-18 .9-5 2.1-10.3 2.7-11.9 1-2.8 1.2-2.8 6.5-2.2 6.2.7 8.8-.5 7.2-3.4-1.2-2.2-9.5-3.9-22.5-4.4-5.5-.2-10.7-.7-11.6-1.1-.9-.3-2.1.1-2.8.9zM492.4 487.2c1 19.8 2.6 40.3 3.6 45.3.5 2.7 1.2 6.9 1.6 9.2.4 2.4 1.2 4.7 1.9 5.3 1.7 1.4 12 2.4 14 1.3 1.6-.9 1.6-1.1 0-2.6-.9-1-3.4-2-5.6-2.3-2.2-.4-4.4-1.4-4.9-2.3-.9-1.8-2.1-12.2-4.1-36.1-2.5-29.7-2.2-27.5-4.7-27.8l-2.3-.4.5 10.4zM460.7 484.4c-1.5 1.5-3.8 10.6-5.7 22-.5 3.2-1.4 7.3-2 9-1.3 4.1-3.9 20.8-5 32.6-.5 5.2-1.2 10.3-1.5 11.3-1 2.4 1.3 5.1 3.1 3.6.8-.6 1.4-2 1.4-3.1s.4-2.7.9-3.6c.5-1 1.1-4.9 1.4-8.9.3-3.9.9-7.9 1.5-8.9 1.1-2 17.2-5.8 20.5-4.8 2 .6 3.8 4.5 5.7 12.6 1.2 5.4 3 7.5 5.1 6.2 1.2-.7 1.2-6-.1-9.8-.5-1.7-2.3-7.6-4-13.1-6.2-20.1-7.2-23-8.1-24.7-.5-1-.9-2.5-.9-3.3 0-2.1-6.9-15.1-9-17-1.6-1.4-1.9-1.4-3.3-.1zm5.6 14.3c3.1 7.7 4.9 13 6.8 20.2 2.2 8.6 1.6 10.1-4 10.1-2 0-5.2.4-7.2.9-6.5 1.5-6.6 1.1-3-17.8 2.2-11.2 3.7-17.1 4.6-17.1.6 0 1.9 1.7 2.8 3.7zM399.5 493.6c-1.6 1.7-1.7 3.4-1.2 18.9.3 9.3 1.3 20.1 2.1 23.8.8 3.8 1.8 9.8 2.1 13.5 1 11.3 2.9 18.6 4.8 19 2.7.5 3.1-2.4 1.8-11.2-2.5-16.4-2.4-15.5-.4-16.2 7.2-2.4 11.3-6.5 14.9-14.9 2.6-6.2 2.5-21.9-.2-26.5-2.5-4.4-7.4-6.7-15.6-7.5-5.5-.5-6.8-.4-8.3 1.1zm16.2 6.1c1.2.8 2.9 3.3 3.8 5.6 2.2 5.9.7 17.3-3 22.8-3.1 4.7-8.3 8.3-10.1 6.8-1.4-1.2-2.3-7.7-3-23.3-.6-10.8-.5-12.1 1.2-13.3 2.1-1.5 7.7-.8 11.1 1.4zM303.2 505.2c-2.1 10.7-5.8 41.4-6.6 55-.7 10.7.2 12.8 5.2 12.8 1.5 0 5 .3 7.7.6 3.7.4 5.5.2 7-1 2-1.6 2-1.6.1-3.1-1.2-.9-4.1-1.5-7.2-1.5-7.6 0-8.1-.8-7.2-12.1.4-5.2.9-11.7 1.2-14.4.3-2.8 1.1-10 1.7-16 .6-6.1 1.7-13.8 2.5-17.2 1.5-6.7 1.1-9.3-1.5-9.3-1.3 0-2 1.5-2.9 6.2zM371.8 500.4c-7.8 1.8-8.3 2.9-8.3 16.4 0 16.9.6 27.5 2.1 37.7.7 4.9 1.4 11 1.6 13.5l.3 4.5 7.5-.3c8.5-.3 13.6-1.6 14.4-3.7.8-2.3-1-2.7-8.2-2.1-3.7.4-7.2.3-7.8-.1-1.9-1.4-4.9-30.1-3.3-31.8.3-.2 3.4-.8 6.9-1.2 5.6-.7 6.5-1.1 6.5-2.8 0-1.8-.7-2-6.8-2.1-3.7-.1-7-.3-7.2-.6-.2-.2-.7-4-1-8.3-.9-12.1.4-13.6 13.1-14.9 5.9-.5 8.1-2.1 6.2-4.3-1.3-1.6-9.4-1.5-16 .1zM341 502.3c-9 2-9 1.9-9.6 38.4-.5 26.8-.3 31 1 32.7 1.4 1.7 2.8 1.9 10.3 1.8 7.1-.2 9.1-.6 10.7-2.1 3.6-3.7 1.6-4.9-7.3-4.5-5.3.3-8.2.1-8.7-.7-1.3-2.2-1.7-25.5-.4-29.3 1.1-3.5 1.3-3.6 6-3.6 3.7 0 5.2-.4 5.9-1.8 1.7-3.1-.2-4.5-5.2-4-2.6.3-5 .1-5.6-.5-.6-.6-1.1-4.8-1.1-9.2 0-10.1 1-11.2 10.3-12.3 7.5-.9 8.6-1.6 7.1-4-1.4-2.1-6.1-2.4-13.4-.9zM707 573c-1.7 1-.7 3.5 2.2 5.4 3.4 2.1 6.2 2.4 6.6.5.4-2.1-7-7-8.8-5.9zM717.7 572.7c-1.4 1.3-.6 2.4 2.9 3.9 4.6 1.9 6.7.5 3.9-2.6-1.8-1.9-5.5-2.7-6.8-1.3zM619.3 597.7c-2.3.8-1.4 3 1.7 4.3 3.3 1.4 4.6.9 3.7-1.4-.7-1.8-3.8-3.5-5.4-2.9zM599 604.3c0 2.1 2.2 3.7 5.2 3.7 3.5 0 3.6-1.3.3-3.4-2.9-1.9-5.5-2.1-5.5-.3zM579.5 606c-.9 1.4.1 2.7 3.7 4.4 6 3.1 7.8 1.3 3.1-2.9-2.9-2.6-5.8-3.2-6.8-1.5zM552 612.2c0 1.1 18.3 10.8 20.3 10.8 2.1 0 .2-3.2-3-5.2-9.3-5.7-17.3-8.3-17.3-5.6zM541.1 622c-2 1.2-.5 2.8 5.2 5.5 10.9 5.3 10.2.8-.9-4.8-1.7-.9-3.6-1.2-4.3-.7zM421.7 624.7c-1.6 1.5-.4 3.3 5.1 7.4 3.1 2.4 8.9 7.1 12.7 10.4 8.2 7.1 17.2 13.9 19.8 14.8 6.3 2.3-6-9.6-27.2-26.6-8.6-6.8-9.3-7.2-10.4-6zM408.3 636.7c-3.7 1.4-1.5 3.2 28.7 22.9 11.7 7.6 18.3 10.1 15.5 5.9-.9-1.3-42.1-29.6-42.8-29.4-.1 0-.8.3-1.4.6zM393.9 645.6c-1.2 1.4-.9 2 2.1 4.6 10.5 8.8 37.2 25 39.8 24.1 2.1-.8 1.4-2-2.5-4.4-11.1-6.8-23.7-15.4-29.8-20.3-3.7-3.1-7.1-5.6-7.5-5.6-.4 0-1.4.7-2.1 1.6zM377.2 653.2c-.7.7-1.2 1.5-1.2 1.9 0 .5 3.3 3.2 7.3 6.2 17.6 13.1 26.7 17.8 26.7 13.7 0-.5-3.5-3.3-7.7-6.1-4.3-2.9-11.2-7.9-15.4-11.1-4.2-3.2-7.8-5.8-8-5.8-.3 0-1 .5-1.7 1.2zM356.7 661.7c-1.9 1.8.2 4.4 8.6 10.4 10.3 7.3 15.3 9.7 16.8 8.2 1.1-1.1-1.5-3.5-14.3-13.1-8.3-6.1-9.8-6.9-11.1-5.5zM340.3 671.7c-.7 1.7.2 2.5 7.6 7 7.2 4.5 12.1 6.5 13.8 5.8 1.6-.6 1.3-1.1-1.7-3.6-1.9-1.6-3.8-2.9-4.2-2.9-.5 0-3.1-1.8-5.9-4-5.4-4.3-8.6-5-9.6-2.3zM328.3 679.6c-.3.9.2 2.3 1.3 3.4 2.3 2.1 11.4 7 13.1 7 3 0 .9-3.3-4.1-6.5-3-1.9-5.7-3.9-6.1-4.5-1-1.5-3.5-1.2-4.2.6zM315.2 682.2c-.7.7-1.2 1.5-1.2 2 0 1.4 12.1 9 13.6 8.4 2-.8.8-2.7-4.1-6.6-5.6-4.5-7-5.1-8.3-3.8zM303 686.5c-1.5 1.7-.7 3.1 2.8 4.9 4.9 2.5 6.9 2.8 7.6 1.1.4-1-.8-2.5-3.6-4.5-4.7-3.4-5.1-3.5-6.8-1.5zM293 691.4c0 1.5 4.6 5.6 6.2 5.6 2.2 0 2-3.3-.3-5.1-2.9-2.2-5.9-2.5-5.9-.5zM543.8 687.9c-3.1.3-6 1-6.5 1.4-.4.5-.8 15.4-.8 33.2 0 39.3-1.1 36.5 13.9 36.5 8.3 0 10.5-.4 12.6-1.9 2-1.6 2.2-2.1 1.1-3.5-1.1-1.3-3.4-1.6-10.7-1.6-5.1 0-9.5-.4-9.8-.8-.2-.4-.8-6.8-1.2-14.1-.8-15.1-.8-15.1 6.8-15.1 5.6 0 9.8-1.4 9.8-3.4s-5.1-3.8-10.2-3.6c-2.3.1-4.9.1-5.5.1-.9-.1-1.3-2.6-1.3-9 0-12.1.8-12.9 11.9-13.5 8.9-.4 11.3-1.5 9.1-4.1-1.3-1.6-7.9-1.8-19.2-.6zM521.7 688.7c-.4.3-.7 12.9-.7 28 0 15.6-.4 27.3-.9 27.3-1 0-10.6-19.1-11.6-23.3-.4-1.5-1-2.9-1.4-3.1-.3-.2-2.9-4.7-5.6-10-6.5-12.6-8.8-15.5-11.2-14-1.6 1-1.9 3.4-2.5 24-1.1 31.8-.5 49.1 1.5 51.1 1.2 1.2 1.9 1.3 2.9.5s1.3-7.4 1.2-30.2c0-16 .3-29.3.7-29.5.8-.6 4.9 4.2 4.9 5.6 0 .5 1.4 3.8 3 7.2 1.7 3.5 3 6.7 3 7.1 0 1.3 15 31 16.3 32.4 1 1 1.6 1 3 0 1.4-1.1 1.8-3.5 2.2-13.8 1-25.7.8-55.5-.4-57.8-1.2-2.2-3.1-2.8-4.4-1.5zM606.6 691.2c-.8 1.3-2.2 5.7-3.1 9.8-2.2 9.3-8.6 30.6-11 36.5-3.8 9.4-3.7 9.2-4.5 7-.8-2-4.5-24.6-5.6-34.5-1.1-9.3-3.2-18.3-4.5-19.1-3.4-2-5.5 2.1-4 7.8 1 4.1 4 24.2 6.6 44.8.9 7.1 2.1 14 2.6 15.3 1.5 3.7 5 2.5 7.4-2.4 1.1-2.3 2.5-4.8 3.1-5.5 1.8-2.2 8.6-21.6 14-39.9 1.4-4.7 2.9-9.9 3.5-11.6 1.2-4.2 1.1-7.8-.3-9.2-1.7-1.7-2.6-1.5-4.2 1zM666.8 690.8c-3.4.4-2.8-2.4-8.8 38.2-1.1 6.9-2.4 15.6-3 19.5-1.8 11.2-1.9 12.6-1.3 14.1.6 1.7 5.2 1.9 5.8.1.8-2 4.5-27.7 4.5-30.8 0-2.8.2-2.9 4.8-2.9 8.2 0 8.4.6 7.7 21.7-.6 16.4-.5 18.1 1.2 20.2l1.8 2.3 1.9-2.1c1.7-1.9 1.9-4.1 2.1-22.3l.2-20.1 4-2.9c5-3.4 8.3-9.8 8.3-15.9 0-3.4-.7-5.5-3.1-8.7-2.8-3.9-4-4.7-11.4-8.5-3.2-1.6-10.1-2.5-14.7-1.9zm12.5 8.3c6.9 3.5 9.7 6.7 9.7 11.2 0 5-1.2 7-5.6 9.6-3.9 2.3-14.6 3.3-16.5 1.4-.9-.9 1-17.1 2.7-22.6.7-2.3 4.5-2.2 9.7.4zM460.7 697.4c-1.2 1.2-2.4 7.8-4.3 23.3-.3 2.9-1 5.5-1.5 5.9-.5.3-5.2-3.1-10.5-7.5-9.6-8.1-12.6-9.5-13.8-6.5-1.2 3.1-.5 4.2 6.2 9.2 3.7 2.7 8.9 6.9 11.5 9.2l4.8 4.3-.4 8.1c-.3 4.5-.7 9.7-1 11.6-3.5 21.3-3.3 24.5 1.6 22.3 2.6-1.2 2.5-.7 4.5-20.8.4-3.9 1-7.5 1.4-8 .3-.6 1.1-6.6 1.7-13.5.7-6.9 2-17.9 3.1-24.5 1.4-8.6 1.6-12.3.8-13.2-1.3-1.7-2.3-1.6-4.1.1zM621 699.7c-1.6 2.7-2.8 7.8-4.2 16.8-1 7.1-2.6 17.5-3.4 23-2.7 16.9-2.7 18-1 19.4 1.8 1.5 23.6 4.7 26 3.8 1.9-.8 2.1-4 .4-5.5-.7-.5-5.2-1.3-10-1.7-5.3-.4-9.1-1.2-9.8-2-.8-1-.7-3.9.5-11.2 2.8-17.1 1.7-15.3 8.8-14.6 5 .4 6.5.2 7.6-1.1 1.8-2.2-.2-4.6-3.9-4.6-1.5 0-4.2-.5-5.9-1.1-3.3-1.2-3.3-1.2-2.8-6.8.7-7 2.3-10.8 5.1-11.8 1.2-.3 5.5-.7 9.6-.8 9.3-.3 9-.2 9-2 0-2.6-3.7-3.5-13.8-3.5h-10l-2.2 3.7zM410.5 709.1c-3.3.5-8.5 1.4-11.6 1.9-3 .6-7.1 1-9.1 1-4 0-7.4 3-6.4 5.6.6 1.5 1.7 1.6 8.9 1 4.5-.4 9.2-.9 10.4-1.2 1.5-.4 2.3 0 2.8 1.5.6 2.1 2.2 13 3.1 21.1 1.8 18.2 2.5 26.2 2.6 30.5.1 7.9 3.6 12.9 6.6 9.2.9-1-1.4-33.2-3.2-44.7-.2-1.4-.5-6.3-.7-11l-.4-8.5 5.2-.5c6.2-.6 9.4-3 7.3-5.4-1.4-1.8-5.8-1.9-15.5-.5zM281.4 717.4c-1.3.9-2.5 3.5-3.2 6.8-1.2 5.4-1.5 7.5-3.2 21.3-.5 4.4-1.4 11.4-2.1 15.5-.6 4.1-1.2 12-1.3 17.5l-.1 10h6l1-13.5 1-13.5 3.5-.3c7.5-.6 14.8-4.9 20.8-12.2 3.2-4 4.2-6.4 5.1-11.4 1-5.9.9-6.8-.9-9.9-2.1-3.5-7.5-7.9-12-9.5-5.2-2-12.4-2.4-14.6-.8zm15.2 8.1c4.7 2.7 5.9 6.3 4.8 13.3-1 6.6-11.2 15.2-18 15.2-2.8 0-2.8-.4-1.3-10.5 1.2-7.9 1.6-11.2 1.8-15.4.3-6.5 4.5-7.3 12.7-2.6zM356 718.8l-4.5 1.8.1 6.9c0 3.9.6 11.9 1.3 18 .6 6 1.5 17.7 2.1 26 .5 8.2 1.2 16 1.6 17.2.8 2.8 4 3.9 6.1 2.2 1.7-1.4 1.5-7.1-.7-21.4-2.2-15-2.4-13.9 2-15.3 6.7-2.1 6.4-2.3 10.3 6.8.9 1.9 2.3 5.5 3.2 8 1 2.5 2.3 5.9 3.1 7.7.8 1.7 1.7 4.5 2 6.2.8 3.6 3.7 6.6 5.9 5.8 1.6-.7 2.2-7.5.7-9.3-.4-.5-1.6-3.4-2.6-6.4-1.1-3-2.9-7.8-4.1-10.5-4.2-9.8-5-13.4-3.5-15.8 5.7-8.9 6.2-13.2 2.5-20-4.4-7.8-16.3-11.6-25.5-7.9zm17.1 7.8c2.8 2.5 3.9 8.1 2.4 11.7-1.7 4-3.9 6-8.9 8.1-6 2.5-6.2 2.3-7-5.2-.3-3.7-.9-8.8-1.2-11.4-.6-3.9-.4-4.7 1.2-5.1 3.1-.9 11.8.3 13.5 1.9zM327.3 723.7c-1.1 1.6-3.2 5.7-4.7 9.3-1.6 3.6-5.5 12-8.7 18.7-3.2 6.7-5.9 12.4-5.9 12.8 0 .3-1.1 3.1-2.5 6.1-1.4 3-2.5 5.8-2.5 6.2 0 .5-1.2 3.2-2.6 6.1-2.6 5.5-2.6 7.7.1 8.7 2.2.9 4-1 6-6.4 4.2-11.6 5.9-15.8 7.2-17.3 1.7-2 14.5-3.4 17.2-1.9 1.9.9 3 7.4 3.7 21.5.1 2.7.3 5.3.3 5.7.2 1.4 3.8.9 5.1-.6.9-1.1.9-5 0-16.8-1.4-20.5-2.6-32.1-4-39.3-.7-3.3-1.4-7.4-1.7-9-.5-3-2.9-6.5-4.4-6.5-.4 0-1.6 1.2-2.6 2.7zm3.3 20c.4 3.8.8 8.6.8 10.8l.1 4-6 .6c-3.3.3-6.4.2-7-.3-.6-.6.1-3.1 2.1-7.1 1.7-3.4 3.9-8.1 4.9-10.5 2.6-6.2 4.2-5.4 5.1 2.5zM693.7 767.8c-3.7 4.1-.8 9.3 4 7.6 3.2-1.1 5.1-5.7 3.3-7.9-1.7-2.1-5.4-1.9-7.3.3zM734 747.5c-1.6 1.9-.4 3.5 8.6 11.6 8.1 7.3 8.1 7.3 21.7 17.9 5.6 4.4 12.5 9.8 15.3 12 4.7 3.7 9.4 5.2 9.4 3.1 0-1.4-14.7-14.4-25.9-22.9-6.7-5-15.9-13.1-21.8-19-4.7-4.6-5.5-4.9-7.3-2.7zM765.3 753.6c-.8 2.1 6.4 9.3 19 19.2 5.5 4.2 13.1 10.3 17 13.5 4 3.2 8 6.5 9 7.3 2 1.6 4.3 1.8 5.1.5.9-1.4-17.8-18.7-30.4-28.1-1.9-1.4-4.8-3.7-6.4-5-1.5-1.4-4.5-4-6.6-5.8-4.2-3.6-5.8-4-6.7-1.6zM727 769.9c0 1 1 2.5 2.3 3.4 1.2.8 3.1 2.3 4.2 3.3 1.1 1.1 3.8 3.2 6 4.8 2.2 1.7 10.6 8.5 18.7 15.2 17.9 14.9 19.5 16.1 21.1 14.5.8-.8-.3-2.4-4.4-6.3-13.2-12.6-19-17.7-26.4-23.3-4.4-3.3-8.2-6.2-8.5-6.5-.3-.3-2.4-2-4.7-3.8-4.7-3.6-8.3-4.2-8.3-1.3zM808.6 775.9c-1.6 1.8-1.5 2 2.7 6 2.4 2.3 5.4 4.9 6.8 5.8 1.3.9 4.9 3.9 8 6.5 3 2.6 6.3 4.8 7.2 4.8 3.7 0 2.7-2.5-3.4-8.4-7.3-7-18.3-16.6-19.1-16.6-.3 0-1.3.8-2.2 1.9zM724.7 786.1c-2.7 1.6-1.4 3.1 10.3 11.9 1.9 1.4 5.7 4.4 8.6 6.7 2.9 2.4 5.6 4.3 5.9 4.3.4 0 3.7 2.5 7.4 5.5C777.6 831.6 798 847 800 847c.6 0 1 .5 1 1.1 0 .6 1 .9 2.3.7 1.2-.2 2.2-1 2.2-1.8 0-1.2-8.3-8.2-21.5-18-1.8-1.4-10.1-7.9-18.4-14.5-15-12-38.1-29.5-38.7-29.5-.2 0-1.2.5-2.2 1.1zM716.7 798.7c-1.8 1.8 0 4.3 6.9 9.3 4.2 3 8.3 5.9 9.2 6.5.9.5 2.2 1.6 3 2.3.8.7 2.8 2 4.5 2.9 1.8.9 5.7 3.3 8.8 5.4 10.7 7.2 23.8 14.1 25.6 13.5 2.3-.9.2-3.4-6.5-7.7-15.5-9.7-33-21.4-37.2-24.8-9.6-7.7-12.6-9.2-14.3-7.4zM661.1 808.3c-1.4 1.7 0 3 9.1 8.5 8.6 5.2 13.4 7 14.9 5.5 1.3-1.3-3.6-5.2-13.8-11.1-7.9-4.6-8.5-4.8-10.2-2.9zM707.7 810.7c-2.7 2.6 2.9 7.6 19.3 17.3 5.3 3.1 10 3.9 10 1.7 0-1-26.7-19.7-28.2-19.7-.3 0-.8.3-1.1.7zM685.7 812.7c-1.7 1.6-.3 3.3 5 6.5 3.2 1.8 7.8 4.5 10.3 6 4.9 3 8 3.5 8 1.5 0-2.3-2.3-4.2-11.3-9.5-8.5-5.1-10.7-5.9-12-4.5zM651.7 816.7c-1.4 1.3-.6 3.9 1.6 5.2 4.3 2.8 9.6 5.1 11.7 5.1 3.1 0 2.4-2.9-1.1-4.8-1.7-.9-4.7-2.7-6.6-4-3.6-2.3-4.6-2.6-5.6-1.5zM555.7 805.7c-1.6 1.6-.3 3.3 6.3 8.3 6.7 4.9 10 5.8 10 2.7 0-1.6-4-5.4-9.5-9.1-4-2.7-5.7-3.1-6.8-1.9zM541.4 809.5c-.7 1.9.9 4 4.5 5.8 1.4.8 4.3 2.4 6.5 3.6 4.8 2.8 7.8 2.1 5-1.1-3-3.3-12.2-9.8-13.9-9.8-.9 0-1.8.7-2.1 1.5zM520.2 810.2c-.9.9-.8 1.6.5 3 .9 1 1.9 1.8 2.4 1.8.4 0 3.9 1.8 7.8 4 4 2.3 7.6 3.8 8.1 3.5 2.8-1.7-.7-5.3-10.4-10.8-5.5-3-6.7-3.2-8.4-1.5zM504.5 813c-1 1.7 1.5 4.1 6.4 6.2 8.2 3.5 10.1-.6 2.1-4.7-5.3-2.7-7.5-3.1-8.5-1.5z"/></svg>