<svg viewBox="0 0 484 570" xmlns="http://www.w3.org/2000/svg">
  <path d="m44 507v66h342v-66z" fill="#feffff"/>
  <path d="m14 570.002v-41.002c0-27.756 37-40.998 37-40.998l80 69h23v13zm358-132.002h27c19.039
    0 65.46-1.278 85 81v51h-112zm-112 118h33v14h-33z" fill="#ff2600"/>
  <path d="m43 194v280c0 19.33 51.4265 83 87 83h172c49.101 0 85-65.652
    85-83v-280c0-3.965-48.992-79-53-79h-239c-4.0083 0-52 79-52 79z" fill="#ffd400"/>
  <path d="m388 272v-122c0-34.2-22.673-33.69-53-34 21.545.496 27-28.1304 27-43
    0-14.3739.06-41.1217-29-55-28.559-13.87826-70 4-70 4s20.472 17.7913 34 51c-1.503 9.4174-9 4-9
    4s-33.247-58.6438-108-66c-95.6977-9.41739-166.9752 3.791-179-11 19.5404 65.9217 40.9048 116.991
    87 116-46.0952.991-46 34-46 34v61 61h32 32v-156c0 8.922 217 7 217 7v149c30.062-.496 65 0 65 0z"
    fill="#ff2600"/>
  <path d="m422 344v-55c0-36.678-35.992-36-40-36h-15c-4.008 0-8 4.035-8 8v112c0 3.965 3.992 8 8
    8h15c4.008 0 40-.322 40-37zm-418-55v55c0 36.678 35.9917 37 40 37h15c4.0083 0 8-4.035
    8-8v-112c0-3.965-3.9917-8-8-8h-15c-4.0083 0-40-.678-40 36z" fill="#ffd400"/>
  <path d="m154 437v17.017l117-.017v-17z" fill="#770b00" data-id="mouth"/>
  <path d="m284 345c-25.553 0-47-21.722-47-47s21.447-46 47-46 47 20.722 47 46-21.447 47-47
    47zm-143 0c-25.553 0-47-21.722-47-47s22.447-45.5 48-45.5 46 20.222 46 45.5-21.447 47-47 47z"
    fill="#feffff"/>
  <circle cx="140" cy="298" r="24" fill="#aad6d7" data-id="right-eye"
    transform="translate(20, 0)"/>
  <circle cx="283" cy="298" r="24" fill="#aad6d7" data-id="left-eye"
    transform="translate(20, 0)"/>
  <path d="m142 375c-42.087 0-77-34.365-77-76s33.913-76 76-76c32.069 0 60.626 20.127 72 48
    11.374-27.873 39.018-47.957 71.087-47.957 42.087 0 76.913 34.322 76.913 75.957s-34.913
    76-77 76c-32.069 0-59.626-20.128-71-48-11.374 27.872-38.931 48-71 48zm-1-31c25.553 0
    46.387-20.339 46.387-45.617 0-25.279-20.834-45.383-46.387-45.383s-46 20.722-46 46 20.447 45 46
    45zm143 0c25.553 0 46-20.722 46-46s-20.447-45-46-45-46.509 20.104-46.509 45.383c0 25.278 20.956
    45.617 46.509 45.617z" fill="#770b00"/>
</svg>
