<svg viewBox="0 0 2048 2048" width="16" height="16">
  <path fill="#333333" d="M272.471 570.08V272.001h16c410.031 0 781.933 166.909 1051.34 436.402 269.336 269.426 436.174 641.389 436.174 1051.6v16h-314.992v-16c0-323.56-131.538-617.092-343.903-829.707-212.277-212.528-505.373-344.214-828.617-344.214h-16v-16z"/>
  <path fill="#333333" d="M272.015 1070.06V771.981h16c272.262 0 519.128 110.832 697.96 289.753 178.832 178.923 289.575 425.934 289.575 698.269v16H960.102v-16c0-90.402-17.458-177.951-50.831-258.675-33.32-80.595-82.528-154.512-146.086-217.8l-.063-.063c-63.341-63.61-137.25-112.971-217.764-146.432-80.446-33.433-167.55-50.973-257.342-50.973h-16v-16z"/>
  <path fill="#333333" d="M334.294 1413.49c38.385-38.288 91.32-62.061 149.555-62.061 58.608 0 111.582 23.705 149.961 61.9 38.531 38.346 62.327 91.268 62.327 149.443 0 58.492-23.713 111.332-62.13 149.57-38.401 38.22-91.457 61.806-150.158 61.806-58.326 0-111.345-23.651-149.75-61.969-38.318-38.227-62.083-90.999-62.083-149.407 0-58.092 23.848-110.946 62.278-149.282z"/>
</svg>